%TF.GenerationSoftware,KiCad,Pcbnew,8.0.6*%
%TF.CreationDate,2025-11-26T17:42:49-05:00*%
%TF.ProjectId,design_digital,64657369-676e-45f6-9469-676974616c2e,rev?*%
%TF.SameCoordinates,Original*%
%TF.FileFunction,Profile,NP*%
%FSLAX46Y46*%
G04 Gerber Fmt 4.6, Leading zero omitted, Abs format (unit mm)*
G04 Created by KiCad (PCBNEW 8.0.6) date 2025-11-26 17:42:49*
%MOMM*%
%LPD*%
G01*
G04 APERTURE LIST*
%TA.AperFunction,Profile*%
%ADD10C,0.050000*%
%TD*%
%TA.AperFunction,Profile*%
%ADD11C,0.200000*%
%TD*%
G04 APERTURE END LIST*
D10*
X-82994500Y173367700D02*
X-81661000Y161086800D01*
X-84340700Y173240700D02*
X-83185000Y160883600D01*
X-196342000Y148742400D02*
X-194157600Y172897800D01*
X-195554600Y173050200D02*
X-198018400Y148920200D01*
X-193257468Y182508788D02*
X-193929000Y175310800D01*
X-194445081Y183423709D02*
X-195300600Y175437800D01*
X-195554600Y173050200D02*
X-194157600Y172897800D01*
X-195300600Y175437800D02*
X-193929000Y175310800D01*
X-198882000Y122529600D02*
X-201295000Y96012000D01*
X-203428600Y96240600D02*
X-200761600Y122732800D01*
X-60325000Y178638200D02*
X-62493023Y184273255D01*
X-57433912Y170775028D02*
X-52374800Y157276800D01*
X-62068780Y169600955D02*
X-56413400Y155778200D01*
X-67724160Y183423709D02*
X-64973200Y176733200D01*
X-44221400Y135432800D02*
X-51054000Y153695400D01*
X-35966020Y113284000D02*
X-42875200Y131826000D01*
X-46075600Y130479800D02*
X-39026122Y113284000D01*
X-54965600Y152196800D02*
X-47574200Y134137400D01*
X-73631436Y83392975D02*
X-75819000Y105029000D01*
X-71443871Y61756949D02*
X-73177400Y78943200D01*
X-75590400Y78740000D02*
X-73984407Y61649270D01*
X-78028800Y104902000D02*
X-76006604Y83275635D01*
X-81356200Y158013400D02*
X-76504800Y110642400D01*
X-82931000Y157835600D02*
X-78587600Y110744000D01*
X-83989340Y183423709D02*
X-83337400Y176987200D01*
X-85176952Y182508788D02*
X-84658200Y176885600D01*
X-112496600Y180441600D02*
X-135102600Y180441600D01*
X-100657470Y180426348D02*
X-109753400Y180416200D01*
X-109753400Y182702200D02*
X-100656751Y182705087D01*
X-135077200Y182702200D02*
X-112471200Y182702200D01*
X-168859200Y180441600D02*
X-177776950Y180426348D01*
X-140970000Y180441600D02*
X-165633400Y180441600D01*
X-165709600Y182702200D02*
X-140995400Y182702200D01*
X-177777669Y182705087D02*
X-168833800Y182702200D01*
X-198424800Y126873000D02*
X-196672200Y145872200D01*
X-204450014Y61649270D02*
X-201549000Y93040200D01*
X-203758800Y93243400D02*
X-206990549Y61756949D01*
X-198297800Y146075400D02*
X-200279000Y127025400D01*
X-232943400Y129184400D02*
X-224688400Y149301200D01*
X-239408298Y113284000D02*
X-234543600Y125196600D01*
X-237540800Y126517400D02*
X-242468400Y113284000D01*
X-228422200Y150952200D02*
X-236093000Y130403600D01*
X-216607131Y169016755D02*
X-222504000Y154609800D01*
X-221216599Y170203528D02*
X-226491800Y156133800D01*
X-214604600Y173964600D02*
X-210710261Y183423709D01*
X-215941398Y184273255D02*
X-219100400Y175869600D01*
X-75590400Y78740000D02*
X-73177400Y78943200D01*
X-76006604Y83275635D02*
X-73631436Y83392975D01*
X-82931000Y157835600D02*
X-81356200Y158013400D01*
X-83185000Y160883600D02*
X-81661000Y161086800D01*
X-84340700Y173240700D02*
X-82994500Y173367700D01*
X-84658200Y176885600D02*
X-83337400Y176987200D01*
X-46075600Y130479800D02*
X-42875200Y131826000D01*
X-47574200Y134137400D02*
X-44221400Y135432800D01*
X-62068780Y169600955D02*
X-57433912Y170775028D01*
X-64973200Y176733200D02*
X-60325000Y178638200D01*
X-109753400Y182702200D02*
X-109753400Y180416200D01*
X-112471200Y182702200D02*
X-112496600Y180441600D01*
X-165709600Y182702200D02*
X-165633400Y180441600D01*
X-168833800Y182702200D02*
X-168859200Y180441600D01*
X-203758800Y93243400D02*
X-201549000Y93040200D01*
X-203428600Y96240600D02*
X-201295000Y96012000D01*
X-200761600Y122732800D02*
X-198882000Y122529600D01*
X-200279000Y127025400D02*
X-198424800Y126873000D01*
X-237540800Y126517400D02*
X-234543600Y125196600D01*
X-236093000Y130403600D02*
X-232943400Y129184400D01*
X-221216599Y170203528D02*
X-216607131Y169016755D01*
X-219100400Y175869600D02*
X-214604600Y173964600D01*
D11*
X-62493023Y184273255D02*
X-45973576Y189581187D01*
D10*
X-109389342Y107813388D02*
X-105410000Y82423000D01*
X-176885600Y158546800D02*
X-175158400Y158750000D01*
X-102235000Y167309800D02*
X-106603800Y130657600D01*
X-56413400Y155778200D02*
X-52374800Y157276800D01*
D11*
X-99424101Y58307383D02*
X-73984407Y61649270D01*
D10*
X-226491800Y156133800D02*
X-222504000Y154609800D01*
X-107111800Y126263400D02*
X-105079800Y126009400D01*
X-96626513Y195946640D02*
X-181807908Y195946640D01*
X-181807908Y195946640D02*
X-177777669Y182705087D01*
X-109012726Y110084931D02*
X-139217210Y110084931D01*
X-83989340Y183423709D02*
X-67724160Y183423709D01*
D11*
X-241837338Y63567202D02*
X-239408298Y113284000D01*
D10*
X-101828600Y170459400D02*
X-100203000Y170230800D01*
X-139018728Y101941200D02*
X-127416373Y52761338D01*
X-105410000Y82423000D02*
X-102997000Y82727800D01*
X-140995400Y182702200D02*
X-140970000Y180441600D01*
X-175031400Y86156800D02*
X-172542200Y85826600D01*
X-175158400Y158750000D02*
X-177776950Y180426348D01*
X-139018728Y101941200D02*
X-109389342Y107813388D01*
X-206990549Y61756949D02*
X-241837338Y63567202D01*
X-228422200Y150952200D02*
X-224688400Y149301200D01*
X-78587600Y110744000D02*
X-76504800Y110642400D01*
D11*
X-36512166Y189581187D02*
X-35966020Y113284000D01*
D10*
X-102235000Y167309800D02*
X-100584000Y167030400D01*
D11*
X-101677089Y58643240D02*
X-127416373Y52761338D01*
D10*
X-102235000Y77698600D02*
X-99424101Y58307383D01*
X-71443871Y61756949D02*
X-36597082Y63567202D01*
X-174650400Y154076400D02*
X-169421694Y110084931D01*
X-169045079Y107813388D02*
X-139415693Y101941200D01*
X-198297800Y146075400D02*
X-196672200Y145872200D01*
X-210710261Y183423709D02*
X-194445081Y183423709D01*
X-175691800Y81381600D02*
X-179010319Y58307383D01*
X-176757331Y58643240D02*
X-173253400Y81051400D01*
X-101677089Y58643240D02*
X-104571800Y77266800D01*
X-176453800Y153771600D02*
X-174650400Y154076400D01*
X-106603800Y130657600D02*
X-104648000Y130429000D01*
X-139217210Y110084931D02*
X-169421694Y110084931D01*
X-100657470Y180426348D02*
X-101828600Y170459400D01*
X-198018400Y148920200D02*
X-196342000Y148742400D01*
X-78028800Y104902000D02*
X-75819000Y105029000D01*
D11*
X-176757331Y58643240D02*
X-151018048Y52761338D01*
X-45973576Y189581187D02*
X-36512166Y189581187D01*
D10*
X-171504165Y109993948D02*
X-175031400Y86156800D01*
D11*
X-241922254Y189581187D02*
X-242468400Y113284000D01*
D10*
X-139415693Y101941200D02*
X-151018048Y52761338D01*
X-172542200Y85826600D02*
X-169045079Y107813388D01*
X-179459423Y181426069D02*
X-176885600Y158546800D01*
X-104648000Y130429000D02*
X-100584000Y167030400D01*
D11*
X-179459423Y181426069D02*
X-193257468Y182508788D01*
D10*
X-106930255Y109993948D02*
X-102997000Y82727800D01*
D11*
X-232460844Y189581187D02*
X-241922254Y189581187D01*
X-215941398Y184273255D02*
X-232460844Y189581187D01*
X-36597082Y63567202D02*
X-39026122Y113284000D01*
D10*
X-54965600Y152196800D02*
X-51054000Y153695400D01*
X-104571800Y77266800D02*
X-102235000Y77698600D01*
X-135077200Y182702200D02*
X-135102600Y180441600D01*
X-176453800Y153771600D02*
X-171504165Y109993948D01*
X-175691800Y81381600D02*
X-173253400Y81051400D01*
X-96626513Y195946640D02*
X-100656751Y182705087D01*
D11*
X-98974997Y181426069D02*
X-85176952Y182508788D01*
D10*
X-105079800Y126009400D02*
X-106930255Y109993948D01*
D11*
X-179010319Y58307383D02*
X-204450014Y61649270D01*
D10*
X-109012726Y110084931D02*
X-107111800Y126263400D01*
X-100203000Y170230800D02*
X-98974997Y181426069D01*
M02*
