%TF.GenerationSoftware,KiCad,Pcbnew,8.0.6*%
%TF.CreationDate,2025-11-26T17:42:49-05:00*%
%TF.ProjectId,design_digital,64657369-676e-45f6-9469-676974616c2e,rev?*%
%TF.SameCoordinates,Original*%
%TF.FileFunction,Copper,L2,Bot*%
%TF.FilePolarity,Positive*%
%FSLAX46Y46*%
G04 Gerber Fmt 4.6, Leading zero omitted, Abs format (unit mm)*
G04 Created by KiCad (PCBNEW 8.0.6) date 2025-11-26 17:42:49*
%MOMM*%
%LPD*%
G01*
G04 APERTURE LIST*
G04 Aperture macros list*
%AMRoundRect*
0 Rectangle with rounded corners*
0 $1 Rounding radius*
0 $2 $3 $4 $5 $6 $7 $8 $9 X,Y pos of 4 corners*
0 Add a 4 corners polygon primitive as box body*
4,1,4,$2,$3,$4,$5,$6,$7,$8,$9,$2,$3,0*
0 Add four circle primitives for the rounded corners*
1,1,$1+$1,$2,$3*
1,1,$1+$1,$4,$5*
1,1,$1+$1,$6,$7*
1,1,$1+$1,$8,$9*
0 Add four rect primitives between the rounded corners*
20,1,$1+$1,$2,$3,$4,$5,0*
20,1,$1+$1,$4,$5,$6,$7,0*
20,1,$1+$1,$6,$7,$8,$9,0*
20,1,$1+$1,$8,$9,$2,$3,0*%
%AMHorizOval*
0 Thick line with rounded ends*
0 $1 width*
0 $2 $3 position (X,Y) of the first rounded end (center of the circle)*
0 $4 $5 position (X,Y) of the second rounded end (center of the circle)*
0 Add line between two ends*
20,1,$1,$2,$3,$4,$5,0*
0 Add two circle primitives to create the rounded ends*
1,1,$1,$2,$3*
1,1,$1,$4,$5*%
%AMRotRect*
0 Rectangle, with rotation*
0 The origin of the aperture is its center*
0 $1 length*
0 $2 width*
0 $3 Rotation angle, in degrees counterclockwise*
0 Add horizontal line*
21,1,$1,$2,0,0,$3*%
G04 Aperture macros list end*
%TA.AperFunction,ComponentPad*%
%ADD10R,1.700000X1.700000*%
%TD*%
%TA.AperFunction,ComponentPad*%
%ADD11O,1.700000X1.700000*%
%TD*%
%TA.AperFunction,ComponentPad*%
%ADD12HorizOval,1.900000X-0.638058X0.124026X0.638058X-0.124026X0*%
%TD*%
%TA.AperFunction,ComponentPad*%
%ADD13C,1.600000*%
%TD*%
%TA.AperFunction,ComponentPad*%
%ADD14O,1.600000X1.600000*%
%TD*%
%TA.AperFunction,ComponentPad*%
%ADD15RotRect,1.700000X1.700000X281.000000*%
%TD*%
%TA.AperFunction,ComponentPad*%
%ADD16HorizOval,1.700000X0.000000X0.000000X0.000000X0.000000X0*%
%TD*%
%TA.AperFunction,ComponentPad*%
%ADD17RotRect,1.700000X1.700000X179.600000*%
%TD*%
%TA.AperFunction,ComponentPad*%
%ADD18HorizOval,1.700000X0.000000X0.000000X0.000000X0.000000X0*%
%TD*%
%TA.AperFunction,ComponentPad*%
%ADD19RotRect,1.700000X1.700000X357.200000*%
%TD*%
%TA.AperFunction,ComponentPad*%
%ADD20HorizOval,1.700000X0.000000X0.000000X0.000000X0.000000X0*%
%TD*%
%TA.AperFunction,ComponentPad*%
%ADD21C,2.000000*%
%TD*%
%TA.AperFunction,ComponentPad*%
%ADD22HorizOval,1.600000X0.000000X0.000000X0.000000X0.000000X0*%
%TD*%
%TA.AperFunction,ComponentPad*%
%ADD23RotRect,1.700000X1.700000X252.200000*%
%TD*%
%TA.AperFunction,ComponentPad*%
%ADD24HorizOval,1.700000X0.000000X0.000000X0.000000X0.000000X0*%
%TD*%
%TA.AperFunction,ComponentPad*%
%ADD25RotRect,1.700000X1.700000X287.800000*%
%TD*%
%TA.AperFunction,ComponentPad*%
%ADD26HorizOval,1.700000X0.000000X0.000000X0.000000X0.000000X0*%
%TD*%
%TA.AperFunction,ComponentPad*%
%ADD27HorizOval,1.600000X0.000000X0.000000X0.000000X0.000000X0*%
%TD*%
%TA.AperFunction,ComponentPad*%
%ADD28RotRect,1.700000X1.700000X166.700000*%
%TD*%
%TA.AperFunction,ComponentPad*%
%ADD29HorizOval,1.700000X0.000000X0.000000X0.000000X0.000000X0*%
%TD*%
%TA.AperFunction,ComponentPad*%
%ADD30HorizOval,1.900000X0.635796X0.135143X-0.635796X-0.135143X0*%
%TD*%
%TA.AperFunction,ComponentPad*%
%ADD31RotRect,1.700000X1.700000X13.300000*%
%TD*%
%TA.AperFunction,ComponentPad*%
%ADD32HorizOval,1.700000X0.000000X0.000000X0.000000X0.000000X0*%
%TD*%
%TA.AperFunction,ComponentPad*%
%ADD33RotRect,1.700000X1.700000X258.800000*%
%TD*%
%TA.AperFunction,ComponentPad*%
%ADD34HorizOval,1.700000X0.000000X0.000000X0.000000X0.000000X0*%
%TD*%
%TA.AperFunction,ComponentPad*%
%ADD35RotRect,1.700000X1.700000X182.200000*%
%TD*%
%TA.AperFunction,ComponentPad*%
%ADD36HorizOval,1.700000X0.000000X0.000000X0.000000X0.000000X0*%
%TD*%
%TA.AperFunction,SMDPad,CuDef*%
%ADD37RoundRect,0.150000X0.150000X0.625000X-0.150000X0.625000X-0.150000X-0.625000X0.150000X-0.625000X0*%
%TD*%
%TA.AperFunction,SMDPad,CuDef*%
%ADD38RoundRect,0.250000X0.350000X0.650000X-0.350000X0.650000X-0.350000X-0.650000X0.350000X-0.650000X0*%
%TD*%
%TA.AperFunction,SMDPad,CuDef*%
%ADD39C,2.000000*%
%TD*%
%TA.AperFunction,ViaPad*%
%ADD40C,1.700000*%
%TD*%
%TA.AperFunction,ViaPad*%
%ADD41C,0.600000*%
%TD*%
%TA.AperFunction,Conductor*%
%ADD42C,0.200000*%
%TD*%
G04 APERTURE END LIST*
D10*
%TO.P,J5,1,Pin_1*%
%TO.N,panel_5*%
X-240430600Y153934400D03*
D11*
%TO.P,J5,2,Pin_2*%
X-240430600Y151394400D03*
%TO.P,J5,3,Pin_3*%
X-240430600Y148854400D03*
%TD*%
D12*
%TO.P,SW2,1,A*%
%TO.N,Net-(SW2-A)*%
X-154226073Y75540339D03*
X-166496413Y77925451D03*
%TO.P,SW2,2,B*%
%TO.N,but_right*%
X-153272027Y80448475D03*
X-165542367Y82833587D03*
%TD*%
D13*
%TO.P,R7,1*%
%TO.N,GND*%
X-110718600Y188061600D03*
D14*
%TO.P,R7,2*%
%TO.N,panel_12*%
X-103098600Y188061600D03*
%TD*%
D13*
%TO.P,R10,1*%
%TO.N,GND*%
X-46568801Y82619400D03*
D14*
%TO.P,R10,2*%
%TO.N,panel_4*%
X-46568800Y90239401D03*
%TD*%
D10*
%TO.P,J14,1,Pin_1*%
%TO.N,GND*%
X-73294000Y181629600D03*
D11*
%TO.P,J14,2,Pin_2*%
X-75834000Y181629600D03*
%TO.P,J14,3,Pin_3*%
X-78374000Y181629600D03*
%TD*%
D15*
%TO.P,J18,1,Pin_1*%
%TO.N,unconnected-(J18-Pin_1-Pad1)*%
X-121370432Y103604633D03*
D16*
%TO.P,J18,2,Pin_2*%
%TO.N,unconnected-(J18-Pin_2-Pad2)*%
X-123863765Y103119979D03*
%TO.P,J18,3,Pin_3*%
%TO.N,unconnected-(J18-Pin_3-Pad3)*%
X-126357098Y102635323D03*
%TD*%
D17*
%TO.P,J12,1,Pin_1*%
%TO.N,3.3V*%
X-38021720Y148864378D03*
D18*
%TO.P,J12,2,Pin_2*%
X-38003990Y151404317D03*
%TO.P,J12,3,Pin_3*%
X-37986254Y153944254D03*
%TD*%
D19*
%TO.P,J11,1,Pin_1*%
%TO.N,3.3V*%
X-238712307Y90851446D03*
D20*
%TO.P,J11,2,Pin_2*%
X-238836385Y88314478D03*
%TO.P,J11,3,Pin_3*%
X-238960464Y85777511D03*
%TD*%
D10*
%TO.P,J7,1,Pin_1*%
%TO.N,panel_12*%
X-102630998Y194151800D03*
D11*
%TO.P,J7,2,Pin_2*%
X-105170996Y194151796D03*
%TO.P,J7,3,Pin_3*%
X-107710999Y194151799D03*
%TD*%
D21*
%TO.P,SW4,1,A*%
%TO.N,Net-(SW4-A)*%
X-100420999Y141301401D03*
X-100421000Y147801400D03*
%TO.P,SW4,2,B*%
%TO.N,but_A*%
X-95920999Y141301402D03*
X-95921000Y147801400D03*
%TD*%
D13*
%TO.P,R1,1*%
%TO.N,GND*%
X-124478342Y88463456D03*
D22*
%TO.P,R1,2*%
%TO.N,Net-(SW1-A)*%
X-117024857Y90047743D03*
%TD*%
D23*
%TO.P,J10,1,Pin_1*%
%TO.N,3.3V*%
X-222308531Y184421148D03*
D24*
%TO.P,J10,2,Pin_2*%
X-224726938Y185197613D03*
%TO.P,J10,3,Pin_3*%
X-227145348Y185974078D03*
%TD*%
D13*
%TO.P,R13,1*%
%TO.N,Net-(D2_controller_green1-A)*%
X-142265400Y127254000D03*
D14*
%TO.P,R13,2*%
%TO.N,green*%
X-134645400Y127254000D03*
%TD*%
D25*
%TO.P,J9,1,Pin_1*%
%TO.N,3.3V*%
X-51267214Y186015711D03*
D26*
%TO.P,J9,2,Pin_2*%
X-53685622Y185239245D03*
%TO.P,J9,3,Pin_3*%
X-56104032Y184462779D03*
%TD*%
D13*
%TO.P,R8,1*%
%TO.N,GND*%
X-170541000Y188117000D03*
D14*
%TO.P,R8,2*%
%TO.N,panel_11*%
X-162921000Y188117000D03*
%TD*%
D13*
%TO.P,R11,1*%
%TO.N,GND*%
X-142138400Y141554200D03*
D14*
%TO.P,R11,2*%
%TO.N,panel_1*%
X-134518400Y141554200D03*
%TD*%
D13*
%TO.P,R2,1*%
%TO.N,GND*%
X-153980975Y89443335D03*
D27*
%TO.P,R2,2*%
%TO.N,Net-(SW2-A)*%
X-161434462Y91027624D03*
%TD*%
D21*
%TO.P,SW5,1,A*%
%TO.N,Net-(SW5-A)*%
X-95020200Y137505000D03*
X-88520200Y137505000D03*
%TO.P,SW5,2,B*%
%TO.N,but_S*%
X-95020200Y133005000D03*
X-88520200Y133005000D03*
%TD*%
D28*
%TO.P,J3,1,Pin_1*%
%TO.N,panel_1*%
X-147531688Y75287647D03*
D29*
%TO.P,J3,2,Pin_2*%
X-146947366Y77759522D03*
%TO.P,J3,3,Pin_3*%
X-146363039Y80231390D03*
%TD*%
D21*
%TO.P,SW3,1,A*%
%TO.N,Net-(SW3-A)*%
X-95121800Y156021600D03*
X-88621800Y156021600D03*
%TO.P,SW3,2,B*%
%TO.N,but_W*%
X-95121800Y151521600D03*
X-88621800Y151521600D03*
%TD*%
D13*
%TO.P,R9,1*%
%TO.N,GND*%
X-238836200Y161086800D03*
D14*
%TO.P,R9,2*%
%TO.N,panel_5*%
X-231216200Y161086800D03*
%TD*%
D30*
%TO.P,SW1,1,A*%
%TO.N,Net-(SW1-A)*%
X-124514601Y79885921D03*
X-112287756Y82484817D03*
%TO.P,SW1,2,B*%
%TO.N,but_left*%
X-123475042Y74995183D03*
X-111248198Y77594079D03*
%TD*%
D10*
%TO.P,J21,1,Pin_1*%
%TO.N,unconnected-(J21-Pin_1-Pad1)*%
X-126578600Y111867400D03*
D11*
%TO.P,J21,2,Pin_2*%
%TO.N,unconnected-(J21-Pin_2-Pad2)*%
X-124038600Y111867400D03*
%TO.P,J21,3,Pin_3*%
%TO.N,unconnected-(J21-Pin_3-Pad3)*%
X-121498600Y111867400D03*
%TD*%
D13*
%TO.P,R12,1*%
%TO.N,Net-(D1_mouse_blue1-A)*%
X-142265400Y114935000D03*
D14*
%TO.P,R12,2*%
%TO.N,blue*%
X-134645400Y114935000D03*
%TD*%
D31*
%TO.P,J8,1,Pin_1*%
%TO.N,GND*%
X-132071382Y80231401D03*
D32*
%TO.P,J8,2,Pin_2*%
X-131487055Y77759522D03*
%TO.P,J8,3,Pin_3*%
X-130902734Y75287648D03*
%TD*%
D10*
%TO.P,J13,1,Pin_1*%
%TO.N,GND*%
X-200037671Y181645709D03*
D11*
%TO.P,J13,2,Pin_2*%
X-202577671Y181645709D03*
%TO.P,J13,3,Pin_3*%
X-205117671Y181645709D03*
%TD*%
D33*
%TO.P,J19,1,Pin_1*%
%TO.N,unconnected-(J19-Pin_1-Pad1)*%
X-152073121Y102635355D03*
D34*
%TO.P,J19,2,Pin_2*%
%TO.N,unconnected-(J19-Pin_2-Pad2)*%
X-154564751Y103128711D03*
%TO.P,J19,3,Pin_3*%
%TO.N,unconnected-(J19-Pin_3-Pad3)*%
X-157056379Y103622068D03*
%TD*%
D10*
%TO.P,J20,1,Pin_1*%
%TO.N,unconnected-(J20-Pin_1-Pad1)*%
X-156957000Y111842000D03*
D11*
%TO.P,J20,2,Pin_2*%
%TO.N,unconnected-(J20-Pin_2-Pad2)*%
X-154417000Y111842000D03*
%TO.P,J20,3,Pin_3*%
%TO.N,unconnected-(J20-Pin_3-Pad3)*%
X-151877000Y111842000D03*
%TD*%
D21*
%TO.P,SW6,1,A*%
%TO.N,Net-(SW6-A)*%
X-88305199Y141403001D03*
X-88305200Y147903000D03*
%TO.P,SW6,2,B*%
%TO.N,but_D*%
X-83805199Y141403002D03*
X-83805200Y147903000D03*
%TD*%
D10*
%TO.P,J6,1,Pin_1*%
%TO.N,panel_11*%
X-170728400Y194126400D03*
D11*
%TO.P,J6,2,Pin_2*%
X-173268400Y194126400D03*
%TO.P,J6,3,Pin_3*%
X-175808400Y194126400D03*
%TD*%
D35*
%TO.P,J4,1,Pin_1*%
%TO.N,panel_4*%
X-39478825Y85776155D03*
D36*
%TO.P,J4,2,Pin_2*%
X-39576332Y88314284D03*
%TO.P,J4,3,Pin_3*%
X-39673836Y90852408D03*
%TD*%
D37*
%TO.P,J15,1,Pin_1*%
%TO.N,SCL*%
X-149509000Y167401000D03*
%TO.P,J15,2,Pin_2*%
%TO.N,SDA*%
X-150509000Y167401000D03*
%TO.P,J15,3,Pin_3*%
%TO.N,unconnected-(J15-Pin_3-Pad3)*%
X-151509000Y167401000D03*
%TO.P,J15,4,Pin_4*%
%TO.N,unconnected-(J15-Pin_4-Pad4)*%
X-152509000Y167401000D03*
D38*
%TO.P,J15,MP*%
%TO.N,N/C*%
X-148209000Y169926000D03*
X-153809000Y169926000D03*
%TD*%
D39*
%TO.P,TP4,1,1*%
%TO.N,3.3V*%
X-160959800Y127203200D03*
%TD*%
%TO.P,TP1,1,1*%
%TO.N,SCL*%
X-160629600Y140868400D03*
%TD*%
%TO.P,TP3,1,1*%
%TO.N,GND*%
X-160731200Y131851400D03*
%TD*%
D37*
%TO.P,J1,1,Pin_1*%
%TO.N,panel_11*%
X-122698600Y167375600D03*
%TO.P,J1,2,Pin_2*%
%TO.N,panel_5*%
X-123698600Y167375600D03*
%TO.P,J1,3,Pin_3*%
%TO.N,panel_4*%
X-124698600Y167375600D03*
%TO.P,J1,4,Pin_4*%
%TO.N,panel_1*%
X-125698600Y167375600D03*
D38*
%TO.P,J1,MP*%
%TO.N,N/C*%
X-121398600Y169900600D03*
X-126998600Y169900600D03*
%TD*%
D39*
%TO.P,TP2,1,1*%
%TO.N,SDA*%
X-160629600Y136818400D03*
%TD*%
D13*
%TO.P,R6,1*%
%TO.N,GND*%
X-81305399Y72872600D03*
D14*
%TO.P,R6,2*%
%TO.N,Net-(SW6-A)*%
X-88925401Y72872599D03*
%TD*%
D13*
%TO.P,R4,1*%
%TO.N,GND*%
X-89027000Y77546200D03*
D14*
%TO.P,R4,2*%
%TO.N,Net-(SW4-A)*%
X-81406997Y77546202D03*
%TD*%
D37*
%TO.P,J17,1,Pin_1*%
%TO.N,unconnected-(J17-Pin_1-Pad1)*%
X-142141600Y156601800D03*
%TO.P,J17,2,Pin_2*%
%TO.N,GND*%
X-143141600Y156601800D03*
%TO.P,J17,3,Pin_3*%
%TO.N,3.3V*%
X-144141600Y156601800D03*
%TO.P,J17,4,Pin_4*%
%TO.N,panel_12*%
X-145141600Y156601800D03*
D38*
%TO.P,J17,MP*%
%TO.N,N/C*%
X-140841600Y159126800D03*
X-146441600Y159126800D03*
%TD*%
D13*
%TO.P,R3,1*%
%TO.N,GND*%
X-88925400Y82016600D03*
D14*
%TO.P,R3,2*%
%TO.N,Net-(SW3-A)*%
X-81305397Y82016602D03*
%TD*%
D13*
%TO.P,R5,1*%
%TO.N,GND*%
X-88925400Y86487000D03*
D14*
%TO.P,R5,2*%
%TO.N,Net-(SW5-A)*%
X-81305400Y86487000D03*
%TD*%
D37*
%TO.P,J16,1,Pin_1*%
%TO.N,green*%
X-128628800Y156398600D03*
%TO.P,J16,2,Pin_2*%
%TO.N,blue*%
X-129628800Y156398600D03*
%TO.P,J16,3,Pin_3*%
%TO.N,but_D*%
X-130628800Y156398600D03*
%TO.P,J16,4,Pin_4*%
%TO.N,but_S*%
X-131628800Y156398600D03*
D38*
%TO.P,J16,MP*%
%TO.N,N/C*%
X-127328800Y158923600D03*
X-132928800Y158923600D03*
%TD*%
D37*
%TO.P,J2,1,Pin_1*%
%TO.N,but_A*%
X-136027600Y167458000D03*
%TO.P,J2,2,Pin_2*%
%TO.N,but_W*%
X-137027600Y167458000D03*
%TO.P,J2,3,Pin_3*%
%TO.N,but_right*%
X-138027600Y167458000D03*
%TO.P,J2,4,Pin_4*%
%TO.N,but_left*%
X-139027600Y167458000D03*
D38*
%TO.P,J2,MP*%
%TO.N,N/C*%
X-134727600Y169983000D03*
X-140327600Y169983000D03*
%TD*%
D40*
%TO.N,panel_4*%
X-98983415Y166370000D03*
X-80518000Y107442385D03*
X-73939015Y107645200D03*
X-104241215Y167614215D03*
D41*
X-87274400Y134721600D03*
%TO.N,panel_1*%
X-161848800Y80010000D03*
D40*
X-173253400Y163906200D03*
X-179908200Y163525200D03*
D41*
X-131419600Y143662400D03*
D40*
X-177546000Y82855185D03*
X-170180000Y81534000D03*
D41*
X-184607200Y140284200D03*
%TO.N,but_right*%
X-180416200Y144653000D03*
X-155879800Y161391600D03*
D40*
X-177038000Y86664800D03*
D41*
X-150368000Y162712400D03*
D40*
X-172872400Y160477200D03*
X-179730400Y160147000D03*
D41*
X-144119600Y165227000D03*
D40*
X-169672000Y85343615D03*
%TO.N,but_left*%
X-106882815Y78181200D03*
X-109888598Y118885592D03*
X-100202615Y78892400D03*
D41*
X-140589000Y166522400D03*
X-127254000Y137388600D03*
D40*
X-103948775Y118363925D03*
D41*
X-138811000Y154203400D03*
D40*
%TO.N,GND*%
X-79959200Y103860985D03*
D41*
X-189407800Y139573000D03*
D40*
X-179267927Y157167195D03*
D41*
X-96545400Y79044800D03*
D40*
X-73380215Y104063800D03*
D41*
X-145415000Y186486800D03*
D40*
X-201193400Y148844000D03*
X-178308000Y78791570D03*
X-192811400Y147904200D03*
X-136473815Y184861200D03*
X-100914200Y82651600D03*
X-223354900Y147154900D03*
X-230708200Y150342600D03*
X-172720000Y157327600D03*
D41*
X-143205200Y158343600D03*
D40*
X-170942000Y77470385D03*
X-136550400Y178358800D03*
D41*
X-71247000Y116357400D03*
X-170383200Y156235400D03*
D40*
X-104648000Y164668200D03*
D41*
X-100203000Y122682000D03*
X-98983800Y82067400D03*
D40*
X-107492800Y82245200D03*
D41*
X-162737800Y77063600D03*
X-155752800Y131699000D03*
D40*
X-99390200Y163423985D03*
%TO.N,3.3V*%
X-49428400Y156413200D03*
X-74295000Y110566200D03*
X-220586300Y153784300D03*
X-57302400Y153543000D03*
X-178688838Y153874108D03*
X-172237400Y153797000D03*
X-103860985Y170764200D03*
D41*
X-220611700Y146164300D03*
D40*
X-98603185Y169519985D03*
X-80873985Y110363385D03*
X-193192400Y145288000D03*
D41*
X-138150600Y173024800D03*
X-141986000Y163957000D03*
D40*
X-227939600Y156972000D03*
X-201473173Y146481427D03*
D41*
X-147523200Y153060400D03*
X-86004400Y136956800D03*
X-111709200Y173050200D03*
D40*
%TO.N,but_W*%
X-108115066Y131975624D03*
D41*
X-136931400Y165887400D03*
D40*
X-102133400Y131394585D03*
%TO.N,but_S*%
X-103327959Y121618436D03*
D41*
X-127736600Y148437600D03*
D40*
X-109499400Y122326400D03*
D41*
%TO.N,but_D*%
X-127050800Y149860000D03*
D40*
X-108521466Y128928009D03*
D41*
X-94315365Y134716435D03*
D40*
X-102235000Y128296170D03*
D41*
X-99847400Y129641600D03*
D40*
%TO.N,panel_5*%
X-178028600Y149555200D03*
D41*
X-142240000Y148209000D03*
D40*
X-193446400Y142748000D03*
X-201980800Y144119600D03*
X-222008700Y150431500D03*
X-171399200Y149733000D03*
X-229362000Y153619200D03*
D41*
X-218795600Y150317200D03*
%TO.N,panel_11*%
X-122758200Y168732200D03*
D40*
X-141020415Y184912000D03*
D41*
X-142087600Y174650400D03*
X-137511042Y170341242D03*
D40*
X-141097000Y178409600D03*
%TO.N,panel_12*%
X-138785600Y178358800D03*
D41*
X-140766800Y175844200D03*
D40*
X-138709015Y184861200D03*
%TO.N,but_A*%
X-109029466Y125422424D03*
D41*
X-132308600Y163449000D03*
D40*
X-102768400Y124841385D03*
D41*
X-109423200Y124002800D03*
X-130962400Y137668000D03*
%TO.N,green*%
X-128600200Y154838400D03*
X-128879600Y127177800D03*
%TO.N,blue*%
X-129544600Y150078200D03*
X-129616200Y154863800D03*
%TO.N,Net-(SW2-A)*%
X-159842200Y86055200D03*
%TO.N,Net-(SW6-A)*%
X-97104200Y134747000D03*
%TD*%
D42*
%TO.N,panel_4*%
X-93821800Y161208385D02*
X-98983415Y166370000D01*
X-124714000Y166585201D02*
X-124714000Y160731200D01*
X-124714000Y160731200D02*
X-121005600Y157022800D01*
X-100794788Y168181373D02*
X-103674057Y168181373D01*
X-98983415Y166370000D02*
X-100794788Y168181373D01*
X-87575278Y134721600D02*
X-93821800Y140968122D01*
X-103674057Y168181373D02*
X-104241215Y167614215D01*
X-104241215Y167157785D02*
X-104241215Y167614215D01*
X-121005600Y157022800D02*
X-114376200Y157022800D01*
X-114376200Y157022800D02*
X-104241215Y167157785D01*
X-87274400Y134721600D02*
X-87575278Y134721600D01*
X-93821800Y140968122D02*
X-93821800Y161208385D01*
%TO.N,panel_1*%
X-174431520Y157292480D02*
X-174431520Y162728080D01*
X-176723087Y156921200D02*
X-174802800Y156921200D01*
X-161848800Y80010000D02*
X-155321000Y73482200D01*
X-125698600Y149383400D02*
X-125698600Y167375600D01*
X-177673000Y159715946D02*
X-177673000Y157454600D01*
X-149337135Y73482200D02*
X-147531688Y75287647D01*
X-177673000Y157454600D02*
X-177114205Y156895805D01*
X-155321000Y73482200D02*
X-149337135Y73482200D01*
X-179908200Y161951146D02*
X-177673000Y159715946D01*
X-184607200Y140284200D02*
X-184607200Y158826200D01*
X-177114205Y156895805D02*
X-176969782Y156895805D01*
X-176969782Y156895805D02*
X-176723087Y156921200D01*
X-174431520Y162728080D02*
X-173253400Y163906200D01*
X-179908200Y163525200D02*
X-179908200Y161951146D01*
X-174802800Y156921200D02*
X-174431520Y157292480D01*
X-131419600Y143662400D02*
X-125698600Y149383400D01*
X-184607200Y158826200D02*
X-179908200Y163525200D01*
%TO.N,but_right*%
X-182473600Y152984200D02*
X-182473600Y157403800D01*
X-179730400Y160147000D02*
X-179730400Y159584441D01*
X-171551600Y157810200D02*
X-172542946Y158801546D01*
X-180898800Y151409400D02*
X-182473600Y152984200D01*
X-139843048Y165227000D02*
X-138027600Y167042448D01*
X-175387000Y156184600D02*
X-175072294Y155869894D01*
X-175467802Y155869894D02*
X-172551360Y155869894D01*
X-138027600Y167042448D02*
X-138027600Y167458000D01*
X-172872400Y158801546D02*
X-172872400Y160477200D01*
X-155879800Y161391600D02*
X-154559000Y162712400D01*
X-171551600Y156869654D02*
X-171551600Y157810200D01*
X-178104800Y157958841D02*
X-178104800Y156616400D01*
X-154559000Y162712400D02*
X-150368000Y162712400D01*
X-180898800Y145135600D02*
X-180898800Y151409400D01*
X-182473600Y157403800D02*
X-179730400Y160147000D01*
X-177673000Y156184600D02*
X-175387000Y156184600D01*
X-178104800Y156616400D02*
X-177673000Y156184600D01*
X-179730400Y159584441D02*
X-178104800Y157958841D01*
X-144119600Y165227000D02*
X-139843048Y165227000D01*
X-180416200Y144653000D02*
X-180898800Y145135600D01*
X-172542946Y158801546D02*
X-172872400Y158801546D01*
X-175072294Y155869894D02*
X-172551360Y155869894D01*
X-172551360Y155869894D02*
X-171551600Y156869654D01*
%TO.N,but_left*%
X-138811000Y148945600D02*
X-138811000Y154203400D01*
X-139963200Y166522400D02*
X-139027600Y167458000D01*
X-140589000Y166522400D02*
X-139963200Y166522400D01*
X-127254000Y137388600D02*
X-138811000Y148945600D01*
%TO.N,GND*%
X-101803200Y140703703D02*
X-101803200Y142595600D01*
X-205219300Y160667700D02*
X-205117671Y160769329D01*
X-100447400Y139347903D02*
X-101803200Y140703703D01*
X-155905200Y131851400D02*
X-160731200Y131851400D01*
X-202577671Y181645709D02*
X-200037671Y181645709D01*
X-170249200Y141369400D02*
X-170249200Y156101400D01*
X-157302594Y89443335D02*
X-153980975Y89443335D01*
X-100447400Y122926400D02*
X-100447400Y139347903D01*
X-218732100Y147154900D02*
X-205219300Y160667700D01*
X-71247000Y106197015D02*
X-73380215Y104063800D01*
X-71247000Y116357400D02*
X-71247000Y106197015D01*
X-201193400Y148844000D02*
X-201193400Y156641800D01*
X-145415000Y186486800D02*
X-138099415Y186486800D01*
X-138099415Y186486800D02*
X-136473815Y184861200D01*
X-101803200Y142595600D02*
X-98983800Y145415000D01*
X-143141600Y156601800D02*
X-143141600Y142557400D01*
X-223354900Y147154900D02*
X-218732100Y147154900D01*
X-162737800Y84008129D02*
X-157302594Y89443335D01*
X-98983800Y163017585D02*
X-99390200Y163423985D01*
X-98983800Y82067400D02*
X-96545400Y79629000D01*
X-143205200Y156665400D02*
X-143141600Y156601800D01*
X-155752800Y131699000D02*
X-155905200Y131851400D01*
X-143141600Y142557400D02*
X-142138400Y141554200D01*
X-201193400Y156641800D02*
X-205219300Y160667700D01*
X-189407800Y139573000D02*
X-189407800Y144500600D01*
X-162737800Y77063600D02*
X-162737800Y84008129D01*
X-96545400Y79629000D02*
X-96545400Y79044800D01*
X-205117671Y181645709D02*
X-202577671Y181645709D01*
X-98983800Y145415000D02*
X-98983800Y163017585D01*
X-100203000Y122682000D02*
X-100447400Y122926400D01*
X-170249200Y156101400D02*
X-170383200Y156235400D01*
X-205117671Y160769329D02*
X-205117671Y181645709D01*
X-160731200Y131851400D02*
X-170249200Y141369400D01*
X-189407800Y144500600D02*
X-192811400Y147904200D01*
X-143205200Y158343600D02*
X-143205200Y156665400D01*
%TO.N,3.3V*%
X-144856200Y154559000D02*
X-144856200Y155112201D01*
X-144856200Y141747071D02*
X-144856200Y154559000D01*
X-160959800Y127203200D02*
X-159400071Y127203200D01*
X-144141600Y155826801D02*
X-144141600Y156601800D01*
X-103860985Y170503783D02*
X-101938575Y168581373D01*
X-144856200Y155112201D02*
X-144141600Y155826801D01*
X-146024600Y154559000D02*
X-144856200Y154559000D01*
X-101938575Y168581373D02*
X-99541797Y168581373D01*
X-103860985Y170764200D02*
X-103860985Y170503783D01*
X-220294573Y146481427D02*
X-220611700Y146164300D01*
X-144141600Y161801400D02*
X-144141600Y156601800D01*
X-89921800Y160838600D02*
X-98603185Y169519985D01*
X-159400071Y127203200D02*
X-144856200Y141747071D01*
X-111709200Y173050200D02*
X-129946400Y173050200D01*
X-99541797Y168581373D02*
X-98603185Y169519985D01*
X-137591800Y172466000D02*
X-138150600Y173024800D01*
X-89921800Y140874200D02*
X-89921800Y160838600D01*
X-130530600Y172466000D02*
X-137591800Y172466000D01*
X-129946400Y173050200D02*
X-130530600Y172466000D01*
X-141986000Y163957000D02*
X-144141600Y161801400D01*
X-147523200Y153060400D02*
X-146024600Y154559000D01*
X-201473173Y146481427D02*
X-220294573Y146481427D01*
X-86004400Y136956800D02*
X-89921800Y140874200D01*
%TO.N,but_W*%
X-104449517Y128651688D02*
X-102133400Y130967805D01*
X-107356867Y129154950D02*
X-106649717Y128447800D01*
X-107356867Y131217425D02*
X-107356867Y129154950D01*
X-104508997Y128651688D02*
X-104449517Y128651688D01*
X-136931400Y165887400D02*
X-136931400Y167361800D01*
X-136931400Y167361800D02*
X-137027600Y167458000D01*
X-104648000Y128447800D02*
X-104648000Y128512685D01*
X-102133400Y130967805D02*
X-102133400Y131394585D01*
X-104648000Y128512685D02*
X-104508997Y128651688D01*
X-108115066Y131975624D02*
X-107356867Y131217425D01*
X-106649717Y128447800D02*
X-104648000Y128447800D01*
%TO.N,but_S*%
X-131628800Y156398600D02*
X-131628800Y153010929D01*
X-131628800Y153010929D02*
X-127736600Y149118729D01*
X-127736600Y149118729D02*
X-127736600Y148437600D01*
%TO.N,but_D*%
X-130628800Y155027871D02*
X-130628800Y156398600D01*
X-99847400Y132855103D02*
X-97288552Y135413951D01*
X-127050800Y149860000D02*
X-127050800Y151449871D01*
X-95815932Y134716435D02*
X-94315365Y134716435D01*
X-127050800Y151449871D02*
X-130628800Y155027871D01*
X-99847400Y129641600D02*
X-99847400Y132855103D01*
X-96513448Y135413951D02*
X-95815932Y134716435D01*
X-97288552Y135413951D02*
X-96513448Y135413951D01*
%TO.N,panel_5*%
X-142240000Y152249752D02*
X-125605152Y168884600D01*
X-222008700Y150431500D02*
X-218909900Y150431500D01*
X-218909900Y150431500D02*
X-218795600Y150317200D01*
X-123698600Y168072400D02*
X-123698600Y167375600D01*
X-124510800Y168884600D02*
X-123698600Y168072400D01*
X-142240000Y148209000D02*
X-142240000Y152249752D01*
X-125605152Y168884600D02*
X-124510800Y168884600D01*
%TO.N,panel_11*%
X-137778442Y170341242D02*
X-137511042Y170341242D01*
X-122758200Y168732200D02*
X-122758200Y167435200D01*
X-142087600Y174650400D02*
X-137778442Y170341242D01*
X-122758200Y167435200D02*
X-122698600Y167375600D01*
%TO.N,panel_12*%
X-140766800Y175844200D02*
X-141742329Y175844200D01*
X-141742329Y175844200D02*
X-145141600Y172444929D01*
X-145141600Y172444929D02*
X-145141600Y156601800D01*
%TO.N,but_A*%
X-102768400Y125419286D02*
X-102768400Y124841385D01*
X-109029466Y125422424D02*
X-109029466Y125971334D01*
X-136027600Y167458000D02*
X-132308600Y163739000D01*
X-109029466Y125971334D02*
X-107213400Y127787400D01*
X-130962400Y137668000D02*
X-117297200Y124002800D01*
X-105136514Y127787400D02*
X-102768400Y125419286D01*
X-107213400Y127787400D02*
X-105136514Y127787400D01*
X-117297200Y124002800D02*
X-109423200Y124002800D01*
X-132308600Y163739000D02*
X-132308600Y163449000D01*
%TO.N,green*%
X-128628800Y156398600D02*
X-128628800Y154867000D01*
X-128879600Y127177800D02*
X-128955800Y127254000D01*
X-128955800Y127254000D02*
X-134645400Y127254000D01*
X-128628800Y154867000D02*
X-128600200Y154838400D01*
%TO.N,blue*%
X-129616200Y154863800D02*
X-129616200Y156386000D01*
X-129616200Y156386000D02*
X-129628800Y156398600D01*
%TO.N,SDA*%
X-150509000Y168175999D02*
X-150208999Y168476000D01*
X-148909000Y168216552D02*
X-148909000Y148539000D01*
X-148909000Y148539000D02*
X-160629600Y136818400D01*
X-149168448Y168476000D02*
X-148909000Y168216552D01*
X-150509000Y167401000D02*
X-150509000Y168175999D01*
X-150208999Y168476000D02*
X-149168448Y168476000D01*
%TO.N,SCL*%
X-149509000Y167401000D02*
X-149509000Y151989000D01*
X-149509000Y151989000D02*
X-160629600Y140868400D01*
%TO.N,Net-(SW2-A)*%
X-159461200Y80775466D02*
X-154226073Y75540339D01*
X-159461200Y85674200D02*
X-159461200Y80775466D01*
X-159842200Y86055200D02*
X-159461200Y85674200D01*
%TO.N,Net-(SW3-A)*%
X-81305397Y82016602D02*
X-80205400Y83116599D01*
X-85140800Y107416239D02*
X-85140800Y152540600D01*
X-80205400Y83116599D02*
X-80205400Y102480839D01*
X-80205400Y102480839D02*
X-85140800Y107416239D01*
X-85140800Y152540600D02*
X-88621800Y156021600D01*
%TO.N,Net-(SW4-A)*%
X-86207600Y127457200D02*
X-94335600Y135585200D01*
X-96119011Y135585200D02*
X-100420999Y139887188D01*
X-100420999Y139887188D02*
X-100420999Y141301401D01*
X-81406997Y80562567D02*
X-86207600Y85363170D01*
X-81406997Y77546202D02*
X-81406997Y80562567D01*
X-86207600Y85363170D02*
X-86207600Y127457200D01*
X-94335600Y135585200D02*
X-96119011Y135585200D01*
%TO.N,Net-(SW5-A)*%
X-85547200Y134532000D02*
X-88520200Y137505000D01*
X-81305400Y86487000D02*
X-85547200Y90728800D01*
X-85547200Y90728800D02*
X-85547200Y134532000D01*
%TO.N,Net-(SW6-A)*%
X-88925401Y72872599D02*
X-97104200Y81051398D01*
X-97104200Y81051398D02*
X-97104200Y134747000D01*
%TD*%
M02*
