%TF.GenerationSoftware,KiCad,Pcbnew,8.0.6*%
%TF.CreationDate,2025-11-26T17:42:49-05:00*%
%TF.ProjectId,design_digital,64657369-676e-45f6-9469-676974616c2e,rev?*%
%TF.SameCoordinates,Original*%
%TF.FileFunction,Copper,L1,Top*%
%TF.FilePolarity,Positive*%
%FSLAX46Y46*%
G04 Gerber Fmt 4.6, Leading zero omitted, Abs format (unit mm)*
G04 Created by KiCad (PCBNEW 8.0.6) date 2025-11-26 17:42:49*
%MOMM*%
%LPD*%
G01*
G04 APERTURE LIST*
G04 Aperture macros list*
%AMRoundRect*
0 Rectangle with rounded corners*
0 $1 Rounding radius*
0 $2 $3 $4 $5 $6 $7 $8 $9 X,Y pos of 4 corners*
0 Add a 4 corners polygon primitive as box body*
4,1,4,$2,$3,$4,$5,$6,$7,$8,$9,$2,$3,0*
0 Add four circle primitives for the rounded corners*
1,1,$1+$1,$2,$3*
1,1,$1+$1,$4,$5*
1,1,$1+$1,$6,$7*
1,1,$1+$1,$8,$9*
0 Add four rect primitives between the rounded corners*
20,1,$1+$1,$2,$3,$4,$5,0*
20,1,$1+$1,$4,$5,$6,$7,0*
20,1,$1+$1,$6,$7,$8,$9,0*
20,1,$1+$1,$8,$9,$2,$3,0*%
%AMHorizOval*
0 Thick line with rounded ends*
0 $1 width*
0 $2 $3 position (X,Y) of the first rounded end (center of the circle)*
0 $4 $5 position (X,Y) of the second rounded end (center of the circle)*
0 Add line between two ends*
20,1,$1,$2,$3,$4,$5,0*
0 Add two circle primitives to create the rounded ends*
1,1,$1,$2,$3*
1,1,$1,$4,$5*%
%AMRotRect*
0 Rectangle, with rotation*
0 The origin of the aperture is its center*
0 $1 length*
0 $2 width*
0 $3 Rotation angle, in degrees counterclockwise*
0 Add horizontal line*
21,1,$1,$2,0,0,$3*%
G04 Aperture macros list end*
%TA.AperFunction,ComponentPad*%
%ADD10R,1.700000X1.700000*%
%TD*%
%TA.AperFunction,ComponentPad*%
%ADD11O,1.700000X1.700000*%
%TD*%
%TA.AperFunction,SMDPad,CuDef*%
%ADD12RoundRect,0.237500X-0.287500X-0.237500X0.287500X-0.237500X0.287500X0.237500X-0.287500X0.237500X0*%
%TD*%
%TA.AperFunction,ComponentPad*%
%ADD13HorizOval,1.900000X-0.638058X0.124026X0.638058X-0.124026X0*%
%TD*%
%TA.AperFunction,ComponentPad*%
%ADD14C,1.600000*%
%TD*%
%TA.AperFunction,ComponentPad*%
%ADD15O,1.600000X1.600000*%
%TD*%
%TA.AperFunction,ComponentPad*%
%ADD16RotRect,1.700000X1.700000X281.000000*%
%TD*%
%TA.AperFunction,ComponentPad*%
%ADD17HorizOval,1.700000X0.000000X0.000000X0.000000X0.000000X0*%
%TD*%
%TA.AperFunction,ComponentPad*%
%ADD18RotRect,1.700000X1.700000X179.600000*%
%TD*%
%TA.AperFunction,ComponentPad*%
%ADD19HorizOval,1.700000X0.000000X0.000000X0.000000X0.000000X0*%
%TD*%
%TA.AperFunction,ComponentPad*%
%ADD20RotRect,1.700000X1.700000X357.200000*%
%TD*%
%TA.AperFunction,ComponentPad*%
%ADD21HorizOval,1.700000X0.000000X0.000000X0.000000X0.000000X0*%
%TD*%
%TA.AperFunction,ComponentPad*%
%ADD22C,2.000000*%
%TD*%
%TA.AperFunction,ComponentPad*%
%ADD23HorizOval,1.600000X0.000000X0.000000X0.000000X0.000000X0*%
%TD*%
%TA.AperFunction,ComponentPad*%
%ADD24RotRect,1.700000X1.700000X252.200000*%
%TD*%
%TA.AperFunction,ComponentPad*%
%ADD25HorizOval,1.700000X0.000000X0.000000X0.000000X0.000000X0*%
%TD*%
%TA.AperFunction,ComponentPad*%
%ADD26RotRect,1.700000X1.700000X287.800000*%
%TD*%
%TA.AperFunction,ComponentPad*%
%ADD27HorizOval,1.700000X0.000000X0.000000X0.000000X0.000000X0*%
%TD*%
%TA.AperFunction,ComponentPad*%
%ADD28HorizOval,1.600000X0.000000X0.000000X0.000000X0.000000X0*%
%TD*%
%TA.AperFunction,ComponentPad*%
%ADD29RotRect,1.700000X1.700000X166.700000*%
%TD*%
%TA.AperFunction,ComponentPad*%
%ADD30HorizOval,1.700000X0.000000X0.000000X0.000000X0.000000X0*%
%TD*%
%TA.AperFunction,ComponentPad*%
%ADD31HorizOval,1.900000X0.635796X0.135143X-0.635796X-0.135143X0*%
%TD*%
%TA.AperFunction,ComponentPad*%
%ADD32RotRect,1.700000X1.700000X13.300000*%
%TD*%
%TA.AperFunction,ComponentPad*%
%ADD33HorizOval,1.700000X0.000000X0.000000X0.000000X0.000000X0*%
%TD*%
%TA.AperFunction,ComponentPad*%
%ADD34RotRect,1.700000X1.700000X258.800000*%
%TD*%
%TA.AperFunction,ComponentPad*%
%ADD35HorizOval,1.700000X0.000000X0.000000X0.000000X0.000000X0*%
%TD*%
%TA.AperFunction,ComponentPad*%
%ADD36RotRect,1.700000X1.700000X182.200000*%
%TD*%
%TA.AperFunction,ComponentPad*%
%ADD37HorizOval,1.700000X0.000000X0.000000X0.000000X0.000000X0*%
%TD*%
%TA.AperFunction,ViaPad*%
%ADD38C,1.700000*%
%TD*%
%TA.AperFunction,ViaPad*%
%ADD39C,0.600000*%
%TD*%
%TA.AperFunction,Conductor*%
%ADD40C,0.200000*%
%TD*%
G04 APERTURE END LIST*
D10*
%TO.P,J5,1,Pin_1*%
%TO.N,panel_5*%
X-240430600Y153934400D03*
D11*
%TO.P,J5,2,Pin_2*%
X-240430600Y151394400D03*
%TO.P,J5,3,Pin_3*%
X-240430600Y148854400D03*
%TD*%
D12*
%TO.P,D2_controller_green1,1,K*%
%TO.N,GND*%
X-139519600Y131826000D03*
%TO.P,D2_controller_green1,2,A*%
%TO.N,Net-(D2_controller_green1-A)*%
X-137769600Y131826000D03*
%TD*%
D13*
%TO.P,SW2,1,A*%
%TO.N,Net-(SW2-A)*%
X-154226073Y75540339D03*
X-166496413Y77925451D03*
%TO.P,SW2,2,B*%
%TO.N,but_right*%
X-153272027Y80448475D03*
X-165542367Y82833587D03*
%TD*%
D14*
%TO.P,R7,1*%
%TO.N,GND*%
X-110718600Y188061600D03*
D15*
%TO.P,R7,2*%
%TO.N,panel_12*%
X-103098600Y188061600D03*
%TD*%
D14*
%TO.P,R10,1*%
%TO.N,GND*%
X-46568801Y82619400D03*
D15*
%TO.P,R10,2*%
%TO.N,panel_4*%
X-46568800Y90239401D03*
%TD*%
D10*
%TO.P,J14,1,Pin_1*%
%TO.N,GND*%
X-73294000Y181629600D03*
D11*
%TO.P,J14,2,Pin_2*%
X-75834000Y181629600D03*
%TO.P,J14,3,Pin_3*%
X-78374000Y181629600D03*
%TD*%
D16*
%TO.P,J18,1,Pin_1*%
%TO.N,unconnected-(J18-Pin_1-Pad1)*%
X-121370432Y103604633D03*
D17*
%TO.P,J18,2,Pin_2*%
%TO.N,unconnected-(J18-Pin_2-Pad2)*%
X-123863765Y103119979D03*
%TO.P,J18,3,Pin_3*%
%TO.N,unconnected-(J18-Pin_3-Pad3)*%
X-126357098Y102635323D03*
%TD*%
D18*
%TO.P,J12,1,Pin_1*%
%TO.N,3.3V*%
X-38021720Y148864378D03*
D19*
%TO.P,J12,2,Pin_2*%
X-38003990Y151404317D03*
%TO.P,J12,3,Pin_3*%
X-37986254Y153944254D03*
%TD*%
D20*
%TO.P,J11,1,Pin_1*%
%TO.N,3.3V*%
X-238712307Y90851446D03*
D21*
%TO.P,J11,2,Pin_2*%
X-238836385Y88314478D03*
%TO.P,J11,3,Pin_3*%
X-238960464Y85777511D03*
%TD*%
D10*
%TO.P,J7,1,Pin_1*%
%TO.N,panel_12*%
X-102630998Y194151800D03*
D11*
%TO.P,J7,2,Pin_2*%
X-105170996Y194151796D03*
%TO.P,J7,3,Pin_3*%
X-107710999Y194151799D03*
%TD*%
D22*
%TO.P,SW4,1,A*%
%TO.N,Net-(SW4-A)*%
X-100420999Y141301401D03*
X-100421000Y147801400D03*
%TO.P,SW4,2,B*%
%TO.N,but_A*%
X-95920999Y141301402D03*
X-95921000Y147801400D03*
%TD*%
D14*
%TO.P,R1,1*%
%TO.N,GND*%
X-124478342Y88463456D03*
D23*
%TO.P,R1,2*%
%TO.N,Net-(SW1-A)*%
X-117024857Y90047743D03*
%TD*%
D24*
%TO.P,J10,1,Pin_1*%
%TO.N,3.3V*%
X-222308531Y184421148D03*
D25*
%TO.P,J10,2,Pin_2*%
X-224726938Y185197613D03*
%TO.P,J10,3,Pin_3*%
X-227145348Y185974078D03*
%TD*%
D14*
%TO.P,R13,1*%
%TO.N,Net-(D2_controller_green1-A)*%
X-142265400Y127254000D03*
D15*
%TO.P,R13,2*%
%TO.N,green*%
X-134645400Y127254000D03*
%TD*%
D26*
%TO.P,J9,1,Pin_1*%
%TO.N,3.3V*%
X-51267214Y186015711D03*
D27*
%TO.P,J9,2,Pin_2*%
X-53685622Y185239245D03*
%TO.P,J9,3,Pin_3*%
X-56104032Y184462779D03*
%TD*%
D14*
%TO.P,R8,1*%
%TO.N,GND*%
X-170541000Y188117000D03*
D15*
%TO.P,R8,2*%
%TO.N,panel_11*%
X-162921000Y188117000D03*
%TD*%
D14*
%TO.P,R11,1*%
%TO.N,GND*%
X-142138400Y141554200D03*
D15*
%TO.P,R11,2*%
%TO.N,panel_1*%
X-134518400Y141554200D03*
%TD*%
D14*
%TO.P,R2,1*%
%TO.N,GND*%
X-153980975Y89443335D03*
D28*
%TO.P,R2,2*%
%TO.N,Net-(SW2-A)*%
X-161434462Y91027624D03*
%TD*%
D22*
%TO.P,SW5,1,A*%
%TO.N,Net-(SW5-A)*%
X-95020200Y137505000D03*
X-88520200Y137505000D03*
%TO.P,SW5,2,B*%
%TO.N,but_S*%
X-95020200Y133005000D03*
X-88520200Y133005000D03*
%TD*%
D29*
%TO.P,J3,1,Pin_1*%
%TO.N,panel_1*%
X-147531688Y75287647D03*
D30*
%TO.P,J3,2,Pin_2*%
X-146947366Y77759522D03*
%TO.P,J3,3,Pin_3*%
X-146363039Y80231390D03*
%TD*%
D22*
%TO.P,SW3,1,A*%
%TO.N,Net-(SW3-A)*%
X-95121800Y156021600D03*
X-88621800Y156021600D03*
%TO.P,SW3,2,B*%
%TO.N,but_W*%
X-95121800Y151521600D03*
X-88621800Y151521600D03*
%TD*%
D14*
%TO.P,R9,1*%
%TO.N,GND*%
X-238836200Y161086800D03*
D15*
%TO.P,R9,2*%
%TO.N,panel_5*%
X-231216200Y161086800D03*
%TD*%
D31*
%TO.P,SW1,1,A*%
%TO.N,Net-(SW1-A)*%
X-124514601Y79885921D03*
X-112287756Y82484817D03*
%TO.P,SW1,2,B*%
%TO.N,but_left*%
X-123475042Y74995183D03*
X-111248198Y77594079D03*
%TD*%
D10*
%TO.P,J21,1,Pin_1*%
%TO.N,unconnected-(J21-Pin_1-Pad1)*%
X-126578600Y111867400D03*
D11*
%TO.P,J21,2,Pin_2*%
%TO.N,unconnected-(J21-Pin_2-Pad2)*%
X-124038600Y111867400D03*
%TO.P,J21,3,Pin_3*%
%TO.N,unconnected-(J21-Pin_3-Pad3)*%
X-121498600Y111867400D03*
%TD*%
D14*
%TO.P,R12,1*%
%TO.N,Net-(D1_mouse_blue1-A)*%
X-142265400Y114935000D03*
D15*
%TO.P,R12,2*%
%TO.N,blue*%
X-134645400Y114935000D03*
%TD*%
D32*
%TO.P,J8,1,Pin_1*%
%TO.N,GND*%
X-132071382Y80231401D03*
D33*
%TO.P,J8,2,Pin_2*%
X-131487055Y77759522D03*
%TO.P,J8,3,Pin_3*%
X-130902734Y75287648D03*
%TD*%
D12*
%TO.P,D1_mouse_blue1,1,K*%
%TO.N,GND*%
X-139519600Y119354600D03*
%TO.P,D1_mouse_blue1,2,A*%
%TO.N,Net-(D1_mouse_blue1-A)*%
X-137769600Y119354600D03*
%TD*%
D10*
%TO.P,J13,1,Pin_1*%
%TO.N,GND*%
X-200037671Y181645709D03*
D11*
%TO.P,J13,2,Pin_2*%
X-202577671Y181645709D03*
%TO.P,J13,3,Pin_3*%
X-205117671Y181645709D03*
%TD*%
D34*
%TO.P,J19,1,Pin_1*%
%TO.N,unconnected-(J19-Pin_1-Pad1)*%
X-152073121Y102635355D03*
D35*
%TO.P,J19,2,Pin_2*%
%TO.N,unconnected-(J19-Pin_2-Pad2)*%
X-154564751Y103128711D03*
%TO.P,J19,3,Pin_3*%
%TO.N,unconnected-(J19-Pin_3-Pad3)*%
X-157056379Y103622068D03*
%TD*%
D10*
%TO.P,J20,1,Pin_1*%
%TO.N,unconnected-(J20-Pin_1-Pad1)*%
X-156957000Y111842000D03*
D11*
%TO.P,J20,2,Pin_2*%
%TO.N,unconnected-(J20-Pin_2-Pad2)*%
X-154417000Y111842000D03*
%TO.P,J20,3,Pin_3*%
%TO.N,unconnected-(J20-Pin_3-Pad3)*%
X-151877000Y111842000D03*
%TD*%
D22*
%TO.P,SW6,1,A*%
%TO.N,Net-(SW6-A)*%
X-88305199Y141403001D03*
X-88305200Y147903000D03*
%TO.P,SW6,2,B*%
%TO.N,but_D*%
X-83805199Y141403002D03*
X-83805200Y147903000D03*
%TD*%
D10*
%TO.P,J6,1,Pin_1*%
%TO.N,panel_11*%
X-170728400Y194126400D03*
D11*
%TO.P,J6,2,Pin_2*%
X-173268400Y194126400D03*
%TO.P,J6,3,Pin_3*%
X-175808400Y194126400D03*
%TD*%
D36*
%TO.P,J4,1,Pin_1*%
%TO.N,panel_4*%
X-39478825Y85776155D03*
D37*
%TO.P,J4,2,Pin_2*%
X-39576332Y88314284D03*
%TO.P,J4,3,Pin_3*%
X-39673836Y90852408D03*
%TD*%
D14*
%TO.P,R6,1*%
%TO.N,GND*%
X-81305399Y72872600D03*
D15*
%TO.P,R6,2*%
%TO.N,Net-(SW6-A)*%
X-88925401Y72872599D03*
%TD*%
D14*
%TO.P,R4,1*%
%TO.N,GND*%
X-89027000Y77546200D03*
D15*
%TO.P,R4,2*%
%TO.N,Net-(SW4-A)*%
X-81406997Y77546202D03*
%TD*%
D14*
%TO.P,R3,1*%
%TO.N,GND*%
X-88925400Y82016600D03*
D15*
%TO.P,R3,2*%
%TO.N,Net-(SW3-A)*%
X-81305397Y82016602D03*
%TD*%
D14*
%TO.P,R5,1*%
%TO.N,GND*%
X-88925400Y86487000D03*
D15*
%TO.P,R5,2*%
%TO.N,Net-(SW5-A)*%
X-81305400Y86487000D03*
%TD*%
D38*
%TO.N,panel_4*%
X-98983415Y166370000D03*
X-80518000Y107442385D03*
X-73939015Y107645200D03*
X-104241215Y167614215D03*
D39*
X-87274400Y134721600D03*
%TO.N,panel_1*%
X-161848800Y80010000D03*
D38*
X-173253400Y163906200D03*
X-179908200Y163525200D03*
D39*
X-131419600Y143662400D03*
D38*
X-177546000Y82855185D03*
X-170180000Y81534000D03*
D39*
X-184607200Y140284200D03*
%TO.N,but_right*%
X-180416200Y144653000D03*
X-155879800Y161391600D03*
D38*
X-177038000Y86664800D03*
D39*
X-150368000Y162712400D03*
D38*
X-172872400Y160477200D03*
X-179730400Y160147000D03*
D39*
X-144119600Y165227000D03*
D38*
X-169672000Y85343615D03*
%TO.N,but_left*%
X-106882815Y78181200D03*
X-109888598Y118885592D03*
X-100202615Y78892400D03*
D39*
X-140589000Y166522400D03*
X-127254000Y137388600D03*
D38*
X-103948775Y118363925D03*
D39*
X-138811000Y154203400D03*
D38*
%TO.N,GND*%
X-79959200Y103860985D03*
D39*
X-189407800Y139573000D03*
D38*
X-179267927Y157167195D03*
D39*
X-96545400Y79044800D03*
D38*
X-73380215Y104063800D03*
D39*
X-145415000Y186486800D03*
D38*
X-201193400Y148844000D03*
X-178308000Y78791570D03*
X-192811400Y147904200D03*
X-136473815Y184861200D03*
X-100914200Y82651600D03*
X-223354900Y147154900D03*
X-230708200Y150342600D03*
X-172720000Y157327600D03*
D39*
X-143205200Y158343600D03*
D38*
X-170942000Y77470385D03*
X-136550400Y178358800D03*
D39*
X-71247000Y116357400D03*
X-170383200Y156235400D03*
D38*
X-104648000Y164668200D03*
D39*
X-100203000Y122682000D03*
X-98983800Y82067400D03*
D38*
X-107492800Y82245200D03*
D39*
X-162737800Y77063600D03*
X-155752800Y131699000D03*
D38*
X-99390200Y163423985D03*
%TO.N,3.3V*%
X-49428400Y156413200D03*
X-74295000Y110566200D03*
X-220586300Y153784300D03*
X-57302400Y153543000D03*
X-178688838Y153874108D03*
X-172237400Y153797000D03*
X-103860985Y170764200D03*
D39*
X-220611700Y146164300D03*
D38*
X-98603185Y169519985D03*
X-80873985Y110363385D03*
X-193192400Y145288000D03*
D39*
X-138150600Y173024800D03*
X-141986000Y163957000D03*
D38*
X-227939600Y156972000D03*
X-201473173Y146481427D03*
D39*
X-147523200Y153060400D03*
X-86004400Y136956800D03*
X-111709200Y173050200D03*
D38*
%TO.N,but_W*%
X-108115066Y131975624D03*
D39*
X-136931400Y165887400D03*
D38*
X-102133400Y131394585D03*
%TO.N,but_S*%
X-103327959Y121618436D03*
D39*
X-127736600Y148437600D03*
D38*
X-109499400Y122326400D03*
D39*
%TO.N,but_D*%
X-127050800Y149860000D03*
D38*
X-108521466Y128928009D03*
D39*
X-94315365Y134716435D03*
D38*
X-102235000Y128296170D03*
D39*
X-99847400Y129641600D03*
D38*
%TO.N,panel_5*%
X-178028600Y149555200D03*
D39*
X-142240000Y148209000D03*
D38*
X-193446400Y142748000D03*
X-201980800Y144119600D03*
X-222008700Y150431500D03*
X-171399200Y149733000D03*
X-229362000Y153619200D03*
D39*
X-218795600Y150317200D03*
%TO.N,panel_11*%
X-122758200Y168732200D03*
D38*
X-141020415Y184912000D03*
D39*
X-142087600Y174650400D03*
X-137511042Y170341242D03*
D38*
X-141097000Y178409600D03*
%TO.N,panel_12*%
X-138785600Y178358800D03*
D39*
X-140766800Y175844200D03*
D38*
X-138709015Y184861200D03*
%TO.N,but_A*%
X-109029466Y125422424D03*
D39*
X-132308600Y163449000D03*
D38*
X-102768400Y124841385D03*
D39*
X-109423200Y124002800D03*
X-130962400Y137668000D03*
%TO.N,green*%
X-128600200Y154838400D03*
X-128879600Y127177800D03*
%TO.N,blue*%
X-129544600Y150078200D03*
X-129616200Y154863800D03*
%TO.N,Net-(SW2-A)*%
X-159842200Y86055200D03*
%TO.N,Net-(SW6-A)*%
X-97104200Y134747000D03*
%TD*%
D40*
%TO.N,panel_4*%
X-79857985Y108102400D02*
X-74396215Y108102400D01*
X-39478825Y85776155D02*
X-39478825Y88216777D01*
X-56533216Y90239401D02*
X-73939015Y107645200D01*
X-87220200Y114144585D02*
X-87220200Y134667400D01*
X-80518000Y107442385D02*
X-79857985Y108102400D01*
X-46568800Y90239401D02*
X-56533216Y90239401D01*
X-87220200Y134667400D02*
X-87274400Y134721600D01*
X-74396215Y108102400D02*
X-73939015Y107645200D01*
X-39478825Y88216777D02*
X-39576332Y88314284D01*
X-39673836Y90852408D02*
X-39673836Y88411788D01*
X-39673836Y88411788D02*
X-39576332Y88314284D01*
X-80518000Y107442385D02*
X-87220200Y114144585D01*
X-46568800Y90239401D02*
X-40286843Y90239401D01*
X-40286843Y90239401D02*
X-39673836Y90852408D01*
%TO.N,panel_1*%
X-177546000Y82855185D02*
X-178188000Y83497185D01*
X-178188000Y133865000D02*
X-184607200Y140284200D01*
X-146363039Y80231390D02*
X-146363039Y78343849D01*
X-173253400Y163906200D02*
X-156870400Y163906200D01*
X-146947366Y77759522D02*
X-146947366Y75871969D01*
X-134518400Y141554200D02*
X-132410200Y143662400D01*
X-170180000Y81534000D02*
X-168656000Y80010000D01*
X-172110400Y83464400D02*
X-170180000Y81534000D01*
X-176936785Y83464400D02*
X-172110400Y83464400D01*
X-146947366Y75871969D02*
X-147531688Y75287647D01*
X-156870400Y163906200D02*
X-134518400Y141554200D01*
X-132410200Y143662400D02*
X-131419600Y143662400D01*
X-168656000Y80010000D02*
X-161848800Y80010000D01*
X-177546000Y82855185D02*
X-176936785Y83464400D01*
X-146363039Y78343849D02*
X-146947366Y77759522D01*
X-178188000Y83497185D02*
X-178188000Y133865000D01*
%TO.N,but_right*%
X-175088789Y84105283D02*
X-170910332Y84105283D01*
X-150368000Y162712400D02*
X-146634200Y162712400D01*
X-155657139Y82833587D02*
X-153272027Y80448475D01*
X-177038000Y86054494D02*
X-175088789Y84105283D01*
X-177038000Y141274800D02*
X-180416200Y144653000D01*
X-159156400Y160477200D02*
X-158953200Y160274000D01*
X-156997400Y160274000D02*
X-155879800Y161391600D01*
X-158953200Y160274000D02*
X-156997400Y160274000D01*
X-146634200Y162712400D02*
X-144119600Y165227000D01*
X-170910332Y84105283D02*
X-169672000Y85343615D01*
X-167161972Y82833587D02*
X-165542367Y82833587D01*
X-172872400Y160477200D02*
X-159156400Y160477200D01*
X-165542367Y82833587D02*
X-155657139Y82833587D01*
X-177038000Y86664800D02*
X-177038000Y86054494D01*
X-169672000Y85343615D02*
X-167161972Y82833587D01*
X-177038000Y86664800D02*
X-177038000Y141274800D01*
%TO.N,but_left*%
X-138811000Y164744400D02*
X-140589000Y166522400D01*
X-111248198Y77594079D02*
X-107469936Y77594079D01*
X-109888598Y118885592D02*
X-109667428Y118885592D01*
X-108349400Y121850054D02*
X-108349400Y124476144D01*
X-109667428Y118885592D02*
X-108665020Y119888000D01*
X-98044000Y112459150D02*
X-98044000Y77851000D01*
X-123475042Y74995183D02*
X-113847094Y74995183D01*
X-107181413Y127651860D02*
X-104998111Y127651860D01*
X-113847094Y74995183D02*
X-111248198Y77594079D01*
X-107879466Y125898770D02*
X-108026200Y126045504D01*
X-107879466Y124946078D02*
X-107879466Y125898770D01*
X-108665020Y121534434D02*
X-108349400Y121850054D01*
X-104998111Y127651860D02*
X-104377140Y127030889D01*
X-104851200Y121721541D02*
X-104851200Y119266350D01*
X-104377140Y122195601D02*
X-104851200Y121721541D01*
X-108665020Y119888000D02*
X-108665020Y121534434D01*
X-108349400Y124476144D02*
X-107879466Y124946078D01*
X-107574240Y127347309D02*
X-107181413Y127651860D01*
X-109888598Y118885592D02*
X-109888598Y120023198D01*
X-100887125Y79576910D02*
X-100202615Y78892400D01*
X-98044000Y77851000D02*
X-99161215Y77851000D01*
X-138811000Y154203400D02*
X-138811000Y164744400D01*
X-108026200Y126045504D02*
X-108026200Y126895349D01*
X-99161215Y77851000D02*
X-100202615Y78892400D01*
X-109888598Y120023198D02*
X-127254000Y137388600D01*
X-104851200Y119266350D02*
X-103948775Y118363925D01*
X-105487105Y79576910D02*
X-100887125Y79576910D01*
X-106882815Y78181200D02*
X-105487105Y79576910D01*
X-103948775Y118363925D02*
X-98044000Y112459150D01*
X-108026200Y126895349D02*
X-107574240Y127347309D01*
X-104377140Y127030889D02*
X-104377140Y122195601D01*
X-107469936Y77594079D02*
X-106882815Y78181200D01*
%TO.N,GND*%
X-89027000Y77546200D02*
X-89027000Y81915000D01*
X-136473815Y184861200D02*
X-133273415Y188061600D01*
X-102823311Y167616768D02*
X-102823311Y167429289D01*
X-137610354Y179418754D02*
X-136550400Y178358800D01*
X-198157190Y147561473D02*
X-196234339Y147357534D01*
X-73380215Y104063800D02*
X-73380215Y104728128D01*
X-201193400Y148844000D02*
X-199910873Y147561473D01*
X-75865487Y107213400D02*
X-78185513Y107213400D01*
X-170942000Y79959200D02*
X-170942000Y77470385D01*
X-170942000Y77470385D02*
X-170015600Y76543985D01*
X-178308000Y78791570D02*
X-178308000Y79653418D01*
X-131487055Y79647074D02*
X-132071382Y80231401D01*
X-182295800Y82779370D02*
X-182295800Y132461000D01*
X-173609000Y82626200D02*
X-170942000Y79959200D01*
X-96088200Y79044800D02*
X-94589600Y77546200D01*
X-124478342Y88463456D02*
X-121794055Y91147743D01*
X-139519600Y119354600D02*
X-145313400Y125148400D01*
X-102865761Y167386839D02*
X-102865761Y167110839D01*
X-98931869Y167944800D02*
X-102495279Y167944800D01*
X-183548405Y157167195D02*
X-179267927Y157167195D01*
X-142138400Y134444800D02*
X-139519600Y131826000D01*
X-145313400Y125148400D02*
X-145313400Y131826000D01*
X-75834000Y121604800D02*
X-71831200Y117602000D01*
X-199910873Y147561473D02*
X-198157190Y147561473D01*
X-234721400Y156972000D02*
X-234721400Y154355800D01*
X-225388454Y151601454D02*
X-223354900Y149567900D01*
X-196234339Y147357534D02*
X-193358066Y147357534D01*
X-179267927Y157167195D02*
X-178996537Y156895805D01*
X-97833415Y164980770D02*
X-97833415Y166846346D01*
X-107492800Y82245200D02*
X-105224510Y79976910D01*
X-71831200Y117602000D02*
X-71247000Y117017800D01*
X-75834000Y181629600D02*
X-75834000Y121604800D01*
X-238836200Y161086800D02*
X-234721400Y156972000D01*
X-136550400Y178358800D02*
X-118338600Y178358800D01*
X-130902733Y77175200D02*
X-131487055Y77759522D01*
X-124478342Y87824441D02*
X-124478342Y88463456D01*
X-118338600Y178358800D02*
X-104648000Y164668200D01*
X-170015600Y76543985D02*
X-163257415Y76543985D01*
X-193358066Y147357534D02*
X-192811400Y147904200D01*
X-79959200Y103860985D02*
X-87196854Y103860985D01*
X-96545400Y79044800D02*
X-96088200Y79044800D01*
X-182295800Y132461000D02*
X-189407800Y139573000D01*
X-100914200Y82651600D02*
X-99568000Y82651600D01*
X-171627800Y156235400D02*
X-172720000Y157327600D01*
X-102823311Y167429289D02*
X-102865761Y167386839D01*
X-78185513Y107213400D02*
X-79959200Y105439713D01*
X-155625800Y131826000D02*
X-155752800Y131699000D01*
X-52393400Y82619400D02*
X-46568801Y82619400D01*
X-79959200Y103860985D02*
X-79959200Y103124000D01*
X-73380215Y104728128D02*
X-75865487Y107213400D01*
X-102865761Y167110839D02*
X-104648000Y165328600D01*
X-130902733Y75287648D02*
X-130902733Y77175200D01*
X-178308000Y79653418D02*
X-175335218Y82626200D01*
X-99390200Y163423985D02*
X-97833415Y164980770D01*
X-84353400Y72872600D02*
X-89027000Y77546200D01*
X-234721400Y154355800D02*
X-230708200Y150342600D01*
X-175335218Y82626200D02*
X-173609000Y82626200D01*
X-145313400Y131826000D02*
X-155625800Y131826000D01*
X-132071382Y80231401D02*
X-124478342Y87824441D01*
X-173151795Y156895805D02*
X-172720000Y157327600D01*
X-81305399Y72872600D02*
X-84353400Y72872600D01*
X-79959200Y105439713D02*
X-79959200Y103860985D01*
X-230708200Y150342600D02*
X-229449346Y151601454D01*
X-136550400Y178358800D02*
X-143205200Y171704000D01*
X-53543200Y83489800D02*
X-53263800Y83489800D01*
X-223354900Y149567900D02*
X-223354900Y147154900D01*
X-178308000Y78791570D02*
X-182295800Y82779370D01*
X-136626600Y184861200D02*
X-137610354Y183877446D01*
X-104648000Y164668200D02*
X-104648000Y163931215D01*
X-104648000Y165328600D02*
X-104648000Y164668200D01*
X-131487055Y77759522D02*
X-131487055Y79647074D01*
X-73380215Y103326815D02*
X-53543200Y83489800D01*
X-170541000Y188117000D02*
X-168910800Y186486800D01*
X-88925400Y86487000D02*
X-88925400Y102132439D01*
X-103588890Y79976910D02*
X-100914200Y82651600D01*
X-192811400Y147904200D02*
X-183548405Y157167195D01*
X-89027000Y81915000D02*
X-88925400Y82016600D01*
X-136473815Y184861200D02*
X-136626600Y184861200D01*
X-121794055Y91147743D02*
X-116395343Y91147743D01*
X-94589600Y77546200D02*
X-89027000Y77546200D01*
X-168910800Y186486800D02*
X-145415000Y186486800D01*
X-105224510Y79976910D02*
X-103588890Y79976910D01*
X-139519600Y131826000D02*
X-145313400Y131826000D01*
X-97833415Y166846346D02*
X-98931869Y167944800D01*
X-133273415Y188061600D02*
X-110718600Y188061600D01*
X-142138400Y141554200D02*
X-142138400Y134444800D01*
X-178996537Y156895805D02*
X-173151795Y156895805D01*
X-137610354Y183877446D02*
X-137610354Y179418754D01*
X-99390200Y163423985D02*
X-99390200Y162687000D01*
X-88925400Y102132439D02*
X-87196854Y103860985D01*
X-143205200Y171704000D02*
X-143205200Y158343600D01*
X-100203000Y116867131D02*
X-100203000Y122682000D01*
X-88925400Y82016600D02*
X-88925400Y86487000D01*
X-116395343Y91147743D02*
X-107492800Y82245200D01*
X-71247000Y117017800D02*
X-71247000Y116357400D01*
X-102495279Y167944800D02*
X-102823311Y167616768D01*
X-163257415Y76543985D02*
X-162737800Y77063600D01*
X-78374000Y181629600D02*
X-73294000Y181629600D01*
X-73380215Y104063800D02*
X-73380215Y103326815D01*
X-99568000Y82651600D02*
X-98983800Y82067400D01*
X-87196854Y103860985D02*
X-100203000Y116867131D01*
X-170383200Y156235400D02*
X-171627800Y156235400D01*
X-53263800Y83489800D02*
X-52393400Y82619400D01*
X-229449346Y151601454D02*
X-225388454Y151601454D01*
%TO.N,3.3V*%
X-220459300Y153911300D02*
X-220586300Y153784300D01*
X-224282000Y142494000D02*
X-220611700Y146164300D01*
X-227145348Y185974078D02*
X-225503402Y185974078D01*
X-219633800Y147142200D02*
X-220586300Y148094700D01*
X-238836385Y90727368D02*
X-238712307Y90851446D01*
X-83266721Y134219121D02*
X-86004400Y136956800D01*
X-56104032Y184462779D02*
X-54462088Y184462779D01*
X-194861934Y146957534D02*
X-193192400Y145288000D01*
X-193192400Y145288000D02*
X-187274946Y145288000D01*
X-172237400Y153797000D02*
X-148259800Y153797000D01*
X-220611700Y146164300D02*
X-219633800Y147142200D01*
X-224282000Y105281753D02*
X-224282000Y142494000D01*
X-238836385Y88314478D02*
X-238836385Y90727368D01*
X-225503402Y185974078D02*
X-224726938Y185197614D01*
X-50286704Y155554896D02*
X-49428400Y156413200D01*
X-103860985Y170764200D02*
X-109423200Y170764200D01*
X-51267214Y186015711D02*
X-37986254Y172734751D01*
X-37986254Y153944254D02*
X-46959454Y153944254D01*
X-225617257Y152512568D02*
X-221858032Y152512568D01*
X-57302400Y127558800D02*
X-74295000Y110566200D01*
X-109423200Y170764200D02*
X-111709200Y173050200D01*
X-83266721Y112756121D02*
X-83266721Y134219121D01*
X-238960464Y90603289D02*
X-238712307Y90851446D01*
X-227939600Y156972000D02*
X-227939600Y154834911D01*
X-200311286Y147396200D02*
X-200076559Y147161473D01*
X-57302400Y153543000D02*
X-56642000Y154203400D01*
X-174414914Y156311600D02*
X-172237400Y154134086D01*
X-223084997Y185197614D02*
X-222308531Y184421148D01*
X-54559200Y154203400D02*
X-53207704Y155554896D01*
X-148259800Y153797000D02*
X-147523200Y153060400D01*
X-200076559Y147161473D02*
X-198178340Y147161473D01*
X-178688838Y153874108D02*
X-178688838Y154315384D01*
X-201473173Y146481427D02*
X-200558400Y147396200D01*
X-238712307Y90851446D02*
X-224282000Y105281753D01*
X-141986000Y169189400D02*
X-141986000Y163957000D01*
X-227812600Y157099000D02*
X-227939600Y156972000D01*
X-222308531Y184421148D02*
X-227812600Y178917079D01*
X-53685622Y185239245D02*
X-52043680Y185239245D01*
X-221858032Y152512568D02*
X-220586300Y153784300D01*
X-74295000Y110566200D02*
X-76174600Y108686600D01*
X-54462088Y184462779D02*
X-53685622Y185239245D01*
X-196417172Y146974682D02*
X-196400024Y146957534D01*
X-200558400Y147396200D02*
X-200311286Y147396200D01*
X-196400024Y146957534D02*
X-194861934Y146957534D01*
X-37986254Y153944254D02*
X-37986254Y148899844D01*
X-79197200Y108686600D02*
X-80873985Y110363385D01*
X-187274946Y145288000D02*
X-178688838Y153874108D01*
X-53207704Y155554896D02*
X-50286704Y155554896D01*
X-138150600Y173024800D02*
X-141986000Y169189400D01*
X-176692622Y156311600D02*
X-174414914Y156311600D01*
X-57302400Y153543000D02*
X-57302400Y127558800D01*
X-224726938Y185197614D02*
X-223084997Y185197614D01*
X-178688838Y154315384D02*
X-176692622Y156311600D01*
X-56642000Y154203400D02*
X-54559200Y154203400D01*
X-52043680Y185239245D02*
X-51267214Y186015711D01*
X-76174600Y108686600D02*
X-79197200Y108686600D01*
X-172237400Y154134086D02*
X-172237400Y153797000D01*
X-227812600Y178917079D02*
X-227812600Y157099000D01*
X-198178340Y147161473D02*
X-196417172Y146974682D01*
X-46959454Y153944254D02*
X-49428400Y156413200D01*
X-238960464Y85777511D02*
X-238960464Y90603289D01*
X-227939600Y154834911D02*
X-225617257Y152512568D01*
X-37986254Y172734751D02*
X-37986254Y153944254D01*
X-37986254Y148899844D02*
X-38021720Y148864378D01*
X-220586300Y148094700D02*
X-220586300Y153784300D01*
X-80873985Y110363385D02*
X-83266721Y112756121D01*
%TO.N,but_W*%
X-102133400Y131394585D02*
X-99120999Y134406986D01*
X-99120999Y134406986D02*
X-99120999Y147522401D01*
X-136931400Y164312671D02*
X-136931400Y165887400D01*
X-108115066Y131975624D02*
X-108115066Y135496337D01*
X-95121800Y151521600D02*
X-88621800Y151521600D01*
X-108115066Y135496337D02*
X-136931400Y164312671D01*
X-99120999Y147522401D02*
X-95121800Y151521600D01*
%TO.N,but_S*%
X-107366608Y128120627D02*
X-104901192Y128120627D01*
X-127736600Y148437600D02*
X-127736600Y140563600D01*
X-110179466Y125898770D02*
X-108300227Y127778009D01*
X-110179466Y123006466D02*
X-110179466Y125898770D01*
X-103327959Y121618436D02*
X-95020200Y129926195D01*
X-103918400Y127137835D02*
X-103918400Y122208877D01*
X-95020200Y129926195D02*
X-95020200Y133005000D01*
X-108300227Y127778009D02*
X-107709226Y127778009D01*
X-127736600Y140563600D02*
X-109499400Y122326400D01*
X-95020200Y133005000D02*
X-88520200Y133005000D01*
X-104901192Y128120627D02*
X-103918400Y127137835D01*
X-103918400Y122208877D02*
X-103327959Y121618436D01*
X-109499400Y122326400D02*
X-110179466Y123006466D01*
X-107709226Y127778009D02*
X-107366608Y128120627D01*
%TO.N,but_D*%
X-108521466Y128928009D02*
X-127050800Y147457343D01*
X-107328229Y128520627D02*
X-102459457Y128520627D01*
X-108521466Y128928009D02*
X-107735611Y128928009D01*
X-102459457Y128520627D02*
X-102235000Y128296170D01*
X-83805200Y147903000D02*
X-83805200Y141403003D01*
X-83805200Y141403003D02*
X-83805199Y141403002D01*
X-83805199Y140381523D02*
X-83805199Y141403002D01*
X-127050800Y147457343D02*
X-127050800Y149860000D01*
X-94315365Y134716435D02*
X-89470287Y134716435D01*
X-89470287Y134716435D02*
X-83805199Y140381523D01*
X-100889570Y129641600D02*
X-99847400Y129641600D01*
X-102235000Y128296170D02*
X-100889570Y129641600D01*
X-107735611Y128928009D02*
X-107328229Y128520627D01*
%TO.N,panel_5*%
X-223689768Y152112568D02*
X-222008700Y150431500D01*
X-174544776Y155875776D02*
X-174153772Y155484772D01*
X-176562760Y155875776D02*
X-174544776Y155875776D01*
X-199593200Y145618200D02*
X-199593200Y145646546D01*
X-240430600Y153934400D02*
X-240430600Y161048035D01*
X-196154604Y146446804D02*
X-196369551Y146446804D01*
X-231216200Y155473400D02*
X-229362000Y153619200D01*
X-232316200Y162186800D02*
X-231216200Y161086800D01*
X-197431553Y146671572D02*
X-198229820Y146671572D01*
X-195707000Y145008600D02*
X-195707000Y145999200D01*
X-174153772Y155484772D02*
X-174153772Y155081022D01*
X-173804820Y152138620D02*
X-171399200Y149733000D01*
X-199593200Y145646546D02*
X-198796647Y146443099D01*
X-198469988Y146701593D02*
X-198535135Y146701593D01*
X-240430600Y161048035D02*
X-239291835Y162186800D01*
X-240430600Y153934400D02*
X-240430600Y148854400D01*
X-218795600Y150317200D02*
X-212598000Y144119600D01*
X-177201915Y150686685D02*
X-177201915Y155236621D01*
X-200482200Y145618200D02*
X-199593200Y145618200D01*
X-174153772Y155081022D02*
X-173804820Y152138620D01*
X-196369551Y146446804D02*
X-196607373Y146468766D01*
X-198796647Y146443099D02*
X-198780499Y146456229D01*
X-193446400Y142748000D02*
X-184835800Y142748000D01*
X-198229820Y146671572D02*
X-198469988Y146701593D01*
X-196607373Y146468766D02*
X-196607380Y146468767D01*
X-143764000Y149733000D02*
X-142240000Y148209000D01*
X-201980800Y144119600D02*
X-200482200Y145618200D01*
X-227855368Y152112568D02*
X-223689768Y152112568D01*
X-195707000Y145999200D02*
X-196154604Y146446804D01*
X-193446400Y142748000D02*
X-195707000Y145008600D01*
X-178028600Y149555200D02*
X-178028600Y149860000D01*
X-177201915Y155236621D02*
X-176562760Y155875776D01*
X-239291835Y162186800D02*
X-232316200Y162186800D01*
X-198535135Y146701593D02*
X-198780499Y146456229D01*
X-212598000Y144119600D02*
X-201980800Y144119600D01*
X-231216200Y161086800D02*
X-231216200Y155473400D01*
X-229362000Y153619200D02*
X-227855368Y152112568D01*
X-178028600Y149860000D02*
X-177201915Y150686685D01*
X-197317515Y146557534D02*
X-197431553Y146671572D01*
X-171399200Y149733000D02*
X-143764000Y149733000D01*
X-196607380Y146468767D02*
X-197317515Y146557534D01*
X-184835800Y142748000D02*
X-178028600Y149555200D01*
%TO.N,panel_11*%
X-139700000Y180867075D02*
X-140367246Y180199829D01*
X-124367242Y170341242D02*
X-122758200Y168732200D01*
X-140367246Y179139354D02*
X-141097000Y178409600D01*
X-141020415Y184912000D02*
X-139877800Y183769385D01*
X-162921000Y188117000D02*
X-144225415Y188117000D01*
X-139877800Y183769385D02*
X-139877800Y181783611D01*
X-139877800Y181783611D02*
X-139700000Y181605811D01*
X-144225415Y188117000D02*
X-141020415Y184912000D01*
X-140367246Y180199829D02*
X-140367246Y179139354D01*
X-142087600Y177419000D02*
X-142087600Y174650400D01*
X-170728400Y194126400D02*
X-168930400Y194126400D01*
X-139700000Y181605811D02*
X-139700000Y180867075D01*
X-168930400Y194126400D02*
X-162921000Y188117000D01*
X-175808400Y194126400D02*
X-170728400Y194126400D01*
X-141097000Y178409600D02*
X-142087600Y177419000D01*
X-137511042Y170341242D02*
X-124367242Y170341242D01*
%TO.N,panel_12*%
X-129418416Y194151799D02*
X-107710999Y194151799D01*
X-103098600Y193684198D02*
X-102630998Y194151800D01*
X-103098600Y188061600D02*
X-103098600Y193684198D01*
X-138785600Y178358800D02*
X-138785600Y177825400D01*
X-138709015Y184861200D02*
X-129418416Y194151799D01*
X-138709015Y184861200D02*
X-138785600Y184784615D01*
X-102630999Y194151799D02*
X-102630998Y194151800D01*
X-138785600Y184784615D02*
X-138785600Y178358800D01*
X-138785600Y177825400D02*
X-140766800Y175844200D01*
X-107710999Y194151799D02*
X-102630999Y194151799D01*
%TO.N,but_A*%
X-97704200Y139518201D02*
X-97704200Y129905585D01*
X-95921000Y147801400D02*
X-95921000Y141301403D01*
X-130819600Y143910929D02*
X-130819600Y137810800D01*
X-132308600Y163449000D02*
X-135347000Y166487400D01*
X-130819600Y137810800D02*
X-130962400Y137668000D01*
X-97704200Y129905585D02*
X-102768400Y124841385D01*
X-95921000Y141301403D02*
X-95920999Y141301402D01*
X-137531400Y166135929D02*
X-137531400Y150622729D01*
X-135347000Y166487400D02*
X-137179929Y166487400D01*
X-95920999Y141301402D02*
X-97704200Y139518201D01*
X-109423200Y124002800D02*
X-109423200Y125028690D01*
X-109423200Y125028690D02*
X-109029466Y125422424D01*
X-137531400Y150622729D02*
X-130819600Y143910929D01*
X-137179929Y166487400D02*
X-137531400Y166135929D01*
%TO.N,Net-(D1_mouse_blue1-A)*%
X-137845800Y119354600D02*
X-137769600Y119354600D01*
X-142265400Y114935000D02*
X-137845800Y119354600D01*
%TO.N,Net-(D2_controller_green1-A)*%
X-137769600Y131826000D02*
X-137769600Y131749800D01*
X-137769600Y131749800D02*
X-142265400Y127254000D01*
%TO.N,green*%
X-128600200Y154457400D02*
X-128473200Y154330400D01*
X-128600200Y154838400D02*
X-128600200Y154457400D01*
X-128473200Y127584200D02*
X-128879600Y127177800D01*
X-128473200Y154330400D02*
X-128473200Y127939800D01*
X-128473200Y127939800D02*
X-128473200Y127584200D01*
%TO.N,blue*%
X-134645400Y114935000D02*
X-129616200Y119964200D01*
X-129616200Y119964200D02*
X-129616200Y154863800D01*
%TO.N,Net-(SW1-A)*%
X-117024857Y90047743D02*
X-117024857Y87221918D01*
X-121915705Y82484817D02*
X-124514601Y79885921D01*
X-117024857Y87221918D02*
X-112287756Y82484817D01*
X-112287756Y82484817D02*
X-121915705Y82484817D01*
%TO.N,Net-(SW2-A)*%
X-156611185Y77925451D02*
X-154226073Y75540339D01*
X-161434462Y87647462D02*
X-159842200Y86055200D01*
X-161434462Y91027624D02*
X-161434462Y87647462D01*
X-166496413Y77925451D02*
X-156611185Y77925451D01*
%TO.N,Net-(SW3-A)*%
X-95121800Y156021600D02*
X-88621800Y156021600D01*
%TO.N,Net-(SW4-A)*%
X-100420999Y141301401D02*
X-100420999Y147801399D01*
X-100420999Y147801399D02*
X-100421000Y147801400D01*
%TO.N,Net-(SW5-A)*%
X-95020200Y137505000D02*
X-88520200Y137505000D01*
%TO.N,Net-(SW6-A)*%
X-97104200Y137259478D02*
X-92960677Y141403001D01*
X-88305200Y141403002D02*
X-88305199Y141403001D01*
X-88305200Y147903000D02*
X-88305200Y141403002D01*
X-92960677Y141403001D02*
X-88305199Y141403001D01*
X-97104200Y134747000D02*
X-97104200Y137259478D01*
%TD*%
M02*
