M48
; DRILL file {KiCad 8.0.6} date 2025-11-26T17:42:51-0500
; FORMAT={-:-/ absolute / metric / decimal}
; #@! TF.CreationDate,2025-11-26T17:42:51-05:00
; #@! TF.GenerationSoftware,Kicad,Pcbnew,8.0.6
; #@! TF.FileFunction,Plated,1,2,PTH
FMAT,2
METRIC
; #@! TA.AperFunction,Plated,PTH,ViaDrill
T1C0.300
; #@! TA.AperFunction,Plated,PTH,ComponentDrill
T2C0.800
; #@! TA.AperFunction,Plated,PTH,ViaDrill
T3C1.000
; #@! TA.AperFunction,Plated,PTH,ComponentDrill
T4C1.000
; #@! TA.AperFunction,Plated,PTH,ComponentDrill
T5C1.100
; #@! TA.AperFunction,Plated,PTH,ComponentDrill
T6C1.300
%
G90
G05
T1
X-220.612Y146.164
X-218.796Y150.317
X-189.408Y139.573
X-184.607Y140.284
X-180.416Y144.653
X-170.383Y156.235
X-162.738Y77.064
X-161.849Y80.01
X-159.842Y86.055
X-155.88Y161.392
X-155.753Y131.699
X-150.368Y162.712
X-147.523Y153.06
X-145.415Y186.487
X-144.12Y165.227
X-143.205Y158.344
X-142.24Y148.209
X-142.088Y174.65
X-141.986Y163.957
X-140.767Y175.844
X-140.589Y166.522
X-138.811Y154.203
X-138.151Y173.025
X-137.511Y170.341
X-136.931Y165.887
X-132.309Y163.449
X-131.42Y143.662
X-130.962Y137.668
X-129.616Y154.864
X-129.545Y150.078
X-128.88Y127.178
X-128.6Y154.838
X-127.737Y148.438
X-127.254Y137.389
X-127.051Y149.86
X-122.758Y168.732
X-111.709Y173.05
X-109.423Y124.003
X-100.203Y122.682
X-99.847Y129.642
X-98.984Y82.067
X-97.104Y134.747
X-96.545Y79.045
X-94.315Y134.716
X-87.274Y134.722
X-86.004Y136.957
X-71.247Y116.357
T2
X-238.836Y161.087
X-231.216Y161.087
X-170.541Y188.117
X-162.921Y188.117
X-161.434Y91.028
X-153.981Y89.443
X-142.265Y127.254
X-142.265Y114.935
X-142.138Y141.554
X-134.645Y127.254
X-134.645Y114.935
X-134.518Y141.554
X-124.478Y88.463
X-117.025Y90.048
X-110.719Y188.062
X-103.099Y188.062
X-89.027Y77.546
X-88.925Y72.873
X-88.925Y86.487
X-88.925Y82.017
X-81.407Y77.546
X-81.305Y86.487
X-81.305Y72.873
X-81.305Y82.017
X-46.569Y82.619
X-46.569Y90.239
T3
X-230.708Y150.343
X-229.362Y153.619
X-227.94Y156.972
X-223.355Y147.155
X-222.009Y150.431
X-220.586Y153.784
X-201.981Y144.12
X-201.473Y146.481
X-201.193Y148.844
X-193.446Y142.748
X-193.192Y145.288
X-192.811Y147.904
X-179.908Y163.525
X-179.73Y160.147
X-179.268Y157.167
X-178.689Y153.874
X-178.308Y78.792
X-178.029Y149.555
X-177.546Y82.855
X-177.038Y86.665
X-173.253Y163.906
X-172.872Y160.477
X-172.72Y157.328
X-172.237Y153.797
X-171.399Y149.733
X-170.942Y77.47
X-170.18Y81.534
X-169.672Y85.344
X-141.097Y178.41
X-141.02Y184.912
X-138.786Y178.359
X-138.709Y184.861
X-136.55Y178.359
X-136.474Y184.861
X-109.889Y118.886
X-109.499Y122.326
X-109.029Y125.422
X-108.521Y128.928
X-108.115Y131.976
X-107.493Y82.245
X-106.883Y78.181
X-104.648Y164.668
X-104.241Y167.614
X-103.949Y118.364
X-103.861Y170.764
X-103.328Y121.618
X-102.768Y124.841
X-102.235Y128.296
X-102.133Y131.395
X-100.914Y82.652
X-100.203Y78.892
X-99.39Y163.424
X-98.983Y166.37
X-98.603Y169.52
X-80.874Y110.363
X-80.518Y107.442
X-79.959Y103.861
X-74.295Y110.566
X-73.939Y107.645
X-73.38Y104.064
X-57.302Y153.543
X-49.428Y156.413
T4
X-240.431Y153.934
X-240.431Y151.394
X-240.431Y148.854
X-238.96Y85.778
X-238.836Y88.314
X-238.712Y90.851
X-227.145Y185.974
X-224.727Y185.198
X-222.309Y184.421
X-205.118Y181.646
X-202.578Y181.646
X-200.038Y181.646
X-175.808Y194.126
X-173.268Y194.126
X-170.728Y194.126
X-157.056Y103.622
X-156.957Y111.842
X-154.565Y103.129
X-154.417Y111.842
X-152.073Y102.635
X-151.877Y111.842
X-147.532Y75.288
X-146.947Y77.76
X-146.363Y80.231
X-132.071Y80.231
X-131.487Y77.76
X-130.903Y75.288
X-126.579Y111.867
X-126.357Y102.635
X-124.039Y111.867
X-123.864Y103.12
X-121.499Y111.867
X-121.37Y103.605
X-107.711Y194.152
X-105.171Y194.152
X-102.631Y194.152
X-78.374Y181.63
X-75.834Y181.63
X-73.294Y181.63
X-56.104Y184.463
X-53.686Y185.239
X-51.267Y186.016
X-39.674Y90.852
X-39.576Y88.314
X-39.479Y85.776
X-38.022Y148.864
X-38.004Y151.404
X-37.986Y153.944
T5
X-100.421Y147.801
X-100.421Y141.301
X-95.921Y147.801
X-95.921Y141.301
X-95.122Y156.022
X-95.122Y151.522
X-95.02Y137.505
X-95.02Y133.005
X-88.622Y156.022
X-88.622Y151.522
X-88.52Y137.505
X-88.52Y133.005
X-88.305Y147.903
X-88.305Y141.403
X-83.805Y147.903
X-83.805Y141.403
T6
X-166.496Y77.925
X-165.542Y82.834
X-154.226Y75.54
X-153.272Y80.448
X-124.515Y79.886
X-123.475Y74.995
X-112.288Y82.485
X-111.248Y77.594
M30
